<?xml version="1.0" encoding="utf-8"?>
<!-- Generator: Adobe Illustrator 19.0.0, SVG Export Plug-In . SVG Version: 6.00 Build 0)  -->
<svg version="1.1" id="圖層_1" xmlns="http://www.w3.org/2000/svg" xmlns:xlink="http://www.w3.org/1999/xlink" x="0px" y="0px"
	 viewBox="0 0 16.1 16" style="enable-background:new 0 0 16.1 16;" xml:space="preserve">
<path id="XMLID_110_" style="fill-rule:evenodd;clip-rule:evenodd;fill:#9FA0A0;" d="M13.9,0.8H2c-0.7,0-1.3,0.6-1.3,1.3v11.8
	c0,0.7,0.6,1.3,1.3,1.3h11.8c0.7,0,1.3-0.6,1.3-1.3V2.1C15.2,1.4,14.6,0.8,13.9,0.8z M8.1,14.6V9.7H6.8V8.3h1.3V5.8
	c0-0.8,1-1.6,1.6-1.6h1.9v1.4h-0.9c-0.5,0-0.9,0.3-0.9,0.7v1.9h2l-0.2,1.4H9.8v4.9H8.1z M14.6,13.9c0,0.4-0.3,0.7-0.7,0.7h-3.5v-4.3
	h1.7l0.4-2.6h-2.1l0-1.3c0,0,0.1-0.1,0.3-0.1h1.4V3.7H9.7c-0.9,0-2.2,1-2.2,2.2v1.9H6.2v2.6h1.3v4.3H2c-0.4,0-0.7-0.3-0.7-0.7V2.1
	c0-0.4,0.3-0.7,0.7-0.7h11.8c0.4,0,0.7,0.3,0.7,0.7V13.9z"/>
</svg>
