<?xml version="1.0" encoding="utf-8"?>
<!-- Generator: Adobe Illustrator 19.0.0, SVG Export Plug-In . SVG Version: 6.00 Build 0)  -->
<svg version="1.1" id="圖層_1" xmlns="http://www.w3.org/2000/svg" xmlns:xlink="http://www.w3.org/1999/xlink" x="0px" y="0px"
	 viewBox="0 0 104.6 19.8" style="enable-background:new 0 0 104.6 19.8;" xml:space="preserve">
<g id="XMLID_223_">
	<path id="XMLID_224_" style="fill:#FFFFFF;" d="M9.1,3.9c0.2-0.5,0.5-1,0.9-1.4c0.3-0.4,0.8-0.7,1.3-0.9s1-0.3,1.5-0.3
		c0.5,0,1,0.1,1.4,0.4c0.4,0.3,0.7,0.6,0.9,1s0.3,0.8,0.3,1.1c0,0.3-0.1,0.6-0.3,0.8c-0.2,0.2-0.6,0.3-1,0.3c-0.6,0-0.9-0.2-0.9-0.7
		c0-0.2,0.1-0.6,0.3-1c0.1-0.4,0.2-0.7,0.2-1c0-0.4-0.2-0.6-0.6-0.6c-0.7,0-1.3,0.4-1.7,1.3c-0.5,0.9-0.8,1.9-1,3h2.5V6h-2.5
		L9.6,9.5l-1.5,6.7c-0.2,0.8-0.5,1.5-1,2C6.7,18.7,6.1,19,5.4,19c-0.6,0-1.1-0.2-1.6-0.5S3.1,17.6,3.1,17c0-0.4,0.1-0.7,0.3-1
		c0.2-0.2,0.4-0.4,0.7-0.4c0.3,0,0.6,0.1,0.8,0.3c0.2,0.2,0.3,0.4,0.3,0.6c0,0.3-0.2,0.6-0.5,0.8c-0.3,0.2-0.5,0.5-0.5,0.9
		c0,0.2,0,0.3,0.1,0.4c0.1,0.1,0.2,0.1,0.4,0.1c0.2,0,0.4-0.1,0.6-0.2c0.2-0.1,0.3-0.3,0.4-0.6l2-8.5L8.6,6H6.8V5.8h1.8
		C8.8,5,9,4.4,9.1,3.9z"/>
	<path id="XMLID_226_" style="fill:#FFFFFF;" d="M17.9,13.6c0,0.3,0.1,0.4,0.3,0.4s0.5-0.2,0.8-0.5s0.6-0.7,0.7-1.2h0.1
		c-0.2,0.4-0.4,0.9-0.8,1.2c-0.3,0.4-0.7,0.6-1.1,0.6c-0.5,0-0.9-0.2-1.2-0.5c-0.3-0.3-0.5-0.8-0.5-1.3c0-0.2,0-0.3,0.1-0.5L17.8,6
		h-1.7V5.8h3.6l-1.7,7.5C17.9,13.4,17.9,13.5,17.9,13.6z M20.2,2.2c0.2,0.2,0.4,0.5,0.4,0.9c0,0.3-0.1,0.6-0.4,0.9
		c-0.2,0.2-0.5,0.4-0.9,0.4c-0.3,0-0.6-0.1-0.9-0.4c-0.2-0.2-0.4-0.5-0.4-0.9c0-0.3,0.1-0.6,0.4-0.9C18.7,2,19,1.9,19.4,1.9
		C19.7,1.9,20,2,20.2,2.2z"/>
	<path id="XMLID_229_" style="fill:#FFFFFF;" d="M31.5,13.7c-0.3,0.4-0.7,0.6-1.1,0.6c-0.5,0-0.9-0.2-1.2-0.5s-0.5-0.8-0.5-1.3
		c0-0.2,0-0.3,0.1-0.5l0.9-3.7c0.1-0.5,0.2-0.9,0.2-1.3c0-0.8-0.4-1.1-1.1-1.1c-1,0-2.2,0.6-3.6,1.9l-1.4,6.1h0.9V14h-3.7v-0.2h1
		L23.7,6h-1.2V5.8h3.1l-0.4,1.7c0.4-0.5,1-0.9,1.7-1.2c0.7-0.4,1.4-0.5,2.1-0.5c0.1,0,0.3,0,0.3,0c1.5,0.2,2.3,0.8,2.3,1.8
		c0,0.1,0,0.3-0.1,0.6l-0.2,0.8l0,0.2l-1.1,4.7c0,0.3,0.1,0.4,0.3,0.4c0.2,0,0.5-0.2,0.8-0.5c0.3-0.3,0.6-0.7,0.7-1.2h0.1
		C32.1,12.9,31.9,13.3,31.5,13.7z"/>
	<path id="XMLID_231_" style="fill:#FFFFFF;" d="M40.1,13.8c-0.5,0.2-1.1,0.4-2,0.4c-0.8,0-1.6-0.2-2.2-0.5
		c-0.6-0.3-1.1-0.8-1.5-1.3c-0.3-0.6-0.5-1.1-0.5-1.8c0-1.1,0.3-2,0.8-2.8c0.5-0.8,1.2-1.4,2-1.8s1.6-0.6,2.5-0.6
		c0.7,0,1.4,0.1,2,0.4c0.6,0.3,1.1,0.7,1.4,1.3L42.7,7L44,1.8h-1.7V1.6h3.5l-2.9,12.2H44V14h-3l0.3-1.3C41,13.2,40.6,13.6,40.1,13.8
		z M41.3,6.1c-0.6-0.3-1.1-0.4-1.6-0.4c-0.7,0-1.3,0.2-1.9,0.7c-0.6,0.5-1,1.1-1.4,1.8s-0.5,1.6-0.5,2.5c0,0.7,0.1,1.3,0.4,1.8
		c0.3,0.5,0.6,0.9,1.1,1.1c0.5,0.3,0.9,0.4,1.4,0.4c0.6,0,1.2-0.2,1.7-0.6c0.5-0.4,0.9-1,1.1-1.8l0.9-4.1
		C42.2,6.8,41.8,6.4,41.3,6.1z"/>
	<path id="XMLID_234_" style="fill:#FFFFFF;" d="M68.2,13.9c0,0.3,0.1,0.4,0.3,0.4s0.5-0.2,0.8-0.5s0.6-0.7,0.7-1.2h0.1
		c-0.2,0.4-0.4,0.9-0.8,1.2s-0.7,0.6-1.1,0.6c-0.5,0-1-0.2-1.3-0.5c-0.3-0.3-0.5-0.8-0.5-1.3c0-0.2,0-0.3,0-0.5l0.8-3.1
		c0.3-1,0.4-1.8,0.4-2.2c0-0.7-0.4-1.1-1.2-1.1c-0.5,0-1,0.2-1.6,0.5S64,7,63.5,7.5L62.1,14h-1.8l1.1-4.9c0.2-0.8,0.3-1.4,0.3-1.9
		c0-0.8-0.3-1.3-0.8-1.4c-0.1,0-0.3-0.1-0.5-0.1c-0.5,0-1,0.1-1.5,0.4c-0.5,0.3-0.9,0.6-1.2,1L56.1,14h-1.9l1.8-8h-1.3V5.8h3.1
		l-0.3,1.1C58,6.5,58.5,6.2,59,6c0.6-0.2,1.1-0.3,1.7-0.3c0.7,0,1.3,0.1,1.8,0.4c0.5,0.2,0.8,0.6,1,1.1c1-1,2.1-1.6,3.4-1.6
		c0.8,0,1.4,0.2,1.9,0.5c0.5,0.3,0.8,0.8,0.8,1.4c0,0.2,0,0.4-0.1,0.6l-0.8,3.2l-0.5,2.2C68.2,13.6,68.2,13.8,68.2,13.9z"/>
	<path id="XMLID_236_" style="fill:#FFFFFF;" d="M73,7.6c0.7-0.7,1.4-1.2,2.3-1.5c0.9-0.3,1.8-0.5,2.7-0.5c0.8,0,1.5,0.1,2.1,0.4
		c0.6,0.3,1.2,0.7,1.6,1.2c0.4,0.5,0.6,1.1,0.6,1.9c0,0.3,0,0.6-0.1,1c-0.2,0.9-0.7,1.8-1.3,2.4c-0.7,0.7-1.4,1.2-2.3,1.5
		c-0.9,0.3-1.7,0.5-2.6,0.5c-0.8,0-1.5-0.1-2.2-0.4c-0.7-0.3-1.2-0.7-1.6-1.2c-0.4-0.5-0.6-1.2-0.6-1.9c0-0.3,0-0.6,0.1-1
		C71.9,9.1,72.3,8.3,73,7.6z M75.9,6.3c-0.6,0.4-1.1,0.9-1.5,1.5c-0.4,0.6-0.7,1.3-0.9,2c-0.2,0.7-0.2,1.3-0.2,1.8
		c0,1.8,0.9,2.7,2.8,2.7c0.7,0,1.3-0.2,1.9-0.6c0.6-0.4,1.1-1,1.5-1.6c0.4-0.7,0.7-1.4,0.9-2.1c0.1-0.6,0.2-1.1,0.2-1.7
		c0-1.7-0.9-2.6-2.7-2.6C77.2,5.7,76.6,5.9,75.9,6.3z"/>
	<path id="XMLID_239_" style="fill:#FFFFFF;" d="M88.8,6c0.5-0.3,1-0.5,1.5-0.5s0.9,0.2,1.3,0.6C91.9,6.4,92,6.9,92,7.6
		c0,0.4-0.1,0.8-0.3,1.1c-0.2,0.3-0.5,0.4-0.8,0.4c-0.4,0-0.7-0.1-0.9-0.3s-0.3-0.4-0.3-0.7c0-0.4,0.2-0.6,0.5-0.8
		c0.4-0.3,0.5-0.6,0.5-0.9c0-0.2-0.1-0.3-0.2-0.4c-0.1-0.1-0.2-0.2-0.4-0.2c-0.5,0-1,0.2-1.5,0.6c-0.5,0.4-0.8,1-1.1,1.7l-1.3,5.7h1
		V14h-3.9v-0.2h1.1L86.2,6h-1.1V5.8h2.6l-0.3,1.7C87.9,6.8,88.3,6.3,88.8,6z"/>
	<path id="XMLID_241_" style="fill:#FFFFFF;" d="M100.1,13.7c-0.7,0.3-1.4,0.5-2.3,0.5c-0.8,0-1.6-0.1-2.3-0.4
		c-0.7-0.3-1.3-0.7-1.8-1.3s-0.7-1.2-0.7-1.9c0-1,0.3-1.9,0.9-2.7c0.6-0.7,1.3-1.3,2.2-1.7c0.9-0.4,1.8-0.6,2.7-0.6
		c0.9,0,1.6,0.2,2.2,0.5s0.9,0.9,0.9,1.5c0,0.7-0.2,1.3-0.5,1.7s-1,0.7-1.8,0.9s-2,0.3-3.5,0.3c-0.5,0-0.9,0-1.2,0
		c0,0.2,0,0.4,0,0.5c0,1,0.3,1.7,1,2.2c0.6,0.5,1.4,0.8,2.4,0.8c0.6,0,1.2-0.1,1.7-0.4c0.6-0.3,1.1-0.7,1.5-1.3h0.2
		C101.3,12.9,100.8,13.4,100.1,13.7z M95.6,10.2c1.1,0,1.9-0.1,2.6-0.3c0.7-0.2,1.1-0.5,1.4-0.9s0.5-1,0.5-1.7
		c0-0.5-0.2-0.9-0.5-1.1c-0.3-0.3-0.7-0.4-1.1-0.4c-0.5,0-0.9,0.2-1.4,0.6c-0.5,0.4-0.9,0.9-1.3,1.6c-0.4,0.7-0.6,1.4-0.8,2.2
		L95.6,10.2z"/>
</g>
</svg>
