<?xml version="1.0" encoding="utf-8"?>
<!-- Generator: Adobe Illustrator 19.0.0, SVG Export Plug-In . SVG Version: 6.00 Build 0)  -->
<svg version="1.1" id="圖層_1" xmlns="http://www.w3.org/2000/svg" xmlns:xlink="http://www.w3.org/1999/xlink" x="0px" y="0px"
	 viewBox="0 0 23 23" style="enable-background:new 0 0 23 23;" xml:space="preserve">
<g id="XMLID_286_">
	<path id="XMLID_297_" style="fill:#C4C4C4;" d="M21.3,9.9h-1.8c-0.2-1-0.6-2-1.2-2.8l1.3-1.3c0.3-0.3,0.3-0.7,0-0.9l-1.4-1.4
		c-0.3-0.3-0.7-0.3-0.9,0L16,4.7c-0.8-0.6-1.8-1-2.8-1.2V1.7c0-0.4-0.3-0.7-0.7-0.7h-2c-0.4,0-0.7,0.3-0.7,0.7v1.8
		c-1,0.2-2,0.6-2.8,1.2L5.7,3.4c-0.3-0.3-0.7-0.3-0.9,0L3.4,4.8c-0.3,0.3-0.3,0.7,0,0.9L4.7,7c-0.6,0.8-1,1.8-1.2,2.8H1.7
		c-0.4,0-0.7,0.3-0.7,0.7v2c0,0.4,0.3,0.7,0.7,0.7h1.8c0.2,1,0.6,2,1.2,2.8l-1.3,1.3c-0.3,0.3-0.3,0.7,0,0.9l1.4,1.4
		c0.3,0.3,0.7,0.3,0.9,0L7,18.3c0.8,0.6,1.8,1,2.8,1.2v1.8c0,0.4,0.3,0.7,0.7,0.7h2c0.4,0,0.7-0.3,0.7-0.7v-1.8c1-0.2,2-0.6,2.8-1.2
		l1.3,1.3c0.3,0.3,0.7,0.3,0.9,0l1.4-1.4c0.3-0.3,0.3-0.7,0-0.9L18.3,16c0.6-0.8,1-1.8,1.2-2.8h1.8c0.4,0,0.7-0.3,0.7-0.7v-2
		C21.9,10.2,21.6,9.9,21.3,9.9z M11.5,15.6c-2.3,0-4.1-1.8-4.1-4.1c0-2.3,1.8-4.1,4.1-4.1c2.3,0,4.1,1.8,4.1,4.1
		C15.6,13.8,13.8,15.6,11.5,15.6z"/>
</g>
</svg>
