<?xml version="1.0" encoding="utf-8"?>
<!-- Generator: Adobe Illustrator 19.0.0, SVG Export Plug-In . SVG Version: 6.00 Build 0)  -->
<svg version="1.1" id="圖層_1" xmlns="http://www.w3.org/2000/svg" xmlns:xlink="http://www.w3.org/1999/xlink" x="0px" y="0px"
	 viewBox="-182 92 43 43" style="enable-background:new -182 92 43 43;" xml:space="preserve">
<style type="text/css">
	.st0{fill:none;stroke:#fff;stroke-width:1.9344;stroke-linecap:round;stroke-linejoin:round;stroke-miterlimit:10;}
	.st1{fill:none;stroke:#fff;stroke-width:0.9672;stroke-linecap:round;stroke-linejoin:round;stroke-miterlimit:10;}
</style>
<g>
	<path id="XMLID_1086_" class="st0" d="M-143.9,126.4h-33.1c-1.9,0-3.5-1.6-3.5-3.5v-22.8c0-1.9,1.6-3.5,3.5-3.5h33.1
		c1.9,0,3.5,1.6,3.5,3.5v22.8C-140.4,124.8-142,126.4-143.9,126.4z"/>
	<rect id="XMLID_1084_" x="-177.1" y="100.2" class="st1" width="33.1" height="20.1"/>
	<rect id="XMLID_1081_" x="-164.8" y="126.4" class="st0" width="8.5" height="4"/>
	<line id="XMLID_1080_" class="st0" x1="-171.2" y1="130.4" x2="-149.8" y2="130.4"/>
	<path id="XMLID_1078_" class="st1" d="M-157.6,105.4c-1.1,0-2.2,0.6-2.7,1.6c-0.1,0.2-0.3,0.3-0.5,0.3c-0.2,0-0.4-0.1-0.5-0.3
		c-0.5-1-1.6-1.6-2.7-1.6c-1.7,0-3.1,1.4-3.1,3.1c0,0.7,0.2,1.3,0.6,1.9l5.7,6.4l5.7-6.4c0.4-0.5,0.6-1.2,0.6-1.9
		C-154.5,106.7-155.8,105.4-157.6,105.4z"/>
</g>
</svg>
