<?xml version="1.0" encoding="utf-8"?>
<!-- Generator: Adobe Illustrator 19.0.0, SVG Export Plug-In . SVG Version: 6.00 Build 0)  -->
<svg version="1.1" id="圖層_1" xmlns="http://www.w3.org/2000/svg" xmlns:xlink="http://www.w3.org/1999/xlink" x="0px" y="0px"
	 viewBox="-182 92 43 43" style="enable-background:new -182 92 43 43;" xml:space="preserve">
<style type="text/css">
	.st0{fill:none;stroke:#fff;stroke-width:1.898;stroke-linecap:round;stroke-linejoin:round;stroke-miterlimit:10;}
	.st1{fill:none;stroke:#fff;stroke-width:1.898;stroke-miterlimit:10;}
</style>
<g>
	<path id="XMLID_1274_" class="st0" d="M-163.4,114.3c2.4-1.5,3.9-4.1,3.9-7.1c0-4.6-3.7-8.4-8.4-8.4c-4.6,0-8.4,3.7-8.4,8.4
		c0,3,1.6,5.6,3.9,7.1c-4.4,2.8-8.6,6.7-8.6,13.9h26C-154.8,120.9-159,117-163.4,114.3z"/>
	<path id="XMLID_1316_" class="st1" d="M-152.3,126.4h12.1c0-5.7-3.3-8.8-6.8-11c1.9-1.2,3.1-3.2,3.1-5.6c0-3.6-2.9-6.6-6.6-6.6
		s-6.6,3-6.6,6.6c0,2.4,1.2,4.4,3.1,5.6c-1.4,0.9-1.7,0.8-2.9,2.1"/>
</g>
</svg>
