<?xml version="1.0" encoding="utf-8"?>
<!-- Generator: Adobe Illustrator 19.0.0, SVG Export Plug-In . SVG Version: 6.00 Build 0)  -->
<svg version="1.1" id="圖層_1" xmlns="http://www.w3.org/2000/svg" xmlns:xlink="http://www.w3.org/1999/xlink" x="0px" y="0px"
	 viewBox="0 0 52 52" style="enable-background:new 0 0 52 52;" xml:space="preserve">
<path id="XMLID_200_" style="fill:#FFFFFF;" d="M50.4,8.7c-2.2-4.5-6.9-7.5-11.9-7.5c-6,0-10.9,3.7-12.5,9.1
	c-1.6-5.5-6.4-9.1-12.3-9.1c-5.1,0-9.7,2.9-11.9,7.5c-0.6,1-1.6,3-1.6,6c0,7.7,4.4,16.4,12.7,25.1c6.2,6.5,12.5,10.8,12.6,10.8
	c0.1,0.1,0.3,0.1,0.5,0.1c0.2,0,0.3,0,0.5-0.1c0.1,0,6.4-4.3,12.6-10.8c8.3-8.7,12.7-17.4,12.7-25.1C51.8,12.2,51.3,10.1,50.4,8.7z
	 M26,48.9C22.6,46.4,2,31,2,14.7c0-1.9,0.5-3.7,1.4-5.1c0,0,0-0.1,0-0.1C5.3,5.5,9.3,3,13.7,3c5.7,0,10.2,4,11,9.7
	c0,0.2,0.1,0.4,0.3,0.6c0,0,0.1,0.1,0.2,0.2c0.2,0.2,0.3,0.3,0.4,0.3c0.3,0.2,0.6,0.2,0.9,0c0.1-0.1,0.2-0.1,0.4-0.4
	c0.1-0.1,0.1-0.1,0.1-0.1c0.2-0.1,0.3-0.3,0.3-0.5C28,6.9,32.6,3,38.5,3c4.5,0,8.4,2.5,10.4,6.5c0,0,0,0.1,0,0.1
	c0.7,1.2,1.1,3,1.1,5.1C50,31,29.5,46.4,26,48.9z M14,8.6c-3.6,0-6.6,2.9-6.6,6.6c0,0.5,0.4,0.9,0.9,0.9c0.5,0,0.9-0.4,0.9-0.9
	c0-2.7,2.2-4.8,4.8-4.8c0.5,0,0.9-0.4,0.9-0.9S14.4,8.6,14,8.6z"/>
</svg>
