<?xml version="1.0" encoding="utf-8"?>
<!-- Generator: Adobe Illustrator 19.0.0, SVG Export Plug-In . SVG Version: 6.00 Build 0)  -->
<svg version="1.1" id="圖層_1" xmlns="http://www.w3.org/2000/svg" xmlns:xlink="http://www.w3.org/1999/xlink" x="0px" y="0px"
	 viewBox="0 0 242 62.6" style="enable-background:new 0 0 242 62.6;" xml:space="preserve">
<g id="XMLID_119_">
	<path id="XMLID_120_" style="fill:#393939;" d="M38.3,46.4c-1.1,0.7-2.6,1.1-4.6,1.1c-1.5,0-2.8-0.5-3.9-1.6c-1-1-1.6-2.3-1.6-3.8
		c0-0.3,0.1-0.9,0.2-1.6l2-7.7c0.1-0.5,0.2-1.1,0.2-1.6c0-2.6-2.2-3.9-6.5-3.9h-6.3l-4.4,17.9h6.2l-0.2,1.3H2.7v-1.3h4.7l8.3-35.3
		h-4.6V8.5H27c2.8,0,5.1,0.4,7,1.2c1.9,0.8,3.3,1.9,4.3,3.3c1,1.4,1.5,2.8,1.5,4.4c0,1.5-0.4,2.9-1.3,4.2c-0.9,1.3-2.1,2.5-3.8,3.4
		c-1.7,0.9-3.7,1.5-6.1,1.7v0.1c2.5,0.3,4.5,0.8,5.9,1.6c1.4,0.8,2.2,1.9,2.2,3.5c0,0.4-0.1,0.8-0.2,1.2L33.9,43
		c-0.1,0.5-0.2,1-0.2,1.4c0,1.4,0.6,2.1,1.8,2.1c1.9,0,3.5-1.2,4.7-3.6h0.7C40.2,44.5,39.4,45.6,38.3,46.4z M31,23.5
		c1.3-1.6,2-3.5,2-5.7c0-2.1-0.6-4-1.9-5.6c-1.3-1.6-3-2.4-5.3-2.4h-4.1l-3.7,16.1h7.4C27.9,25.9,29.7,25.1,31,23.5z"/>
	<path id="XMLID_123_" style="fill:#393939;" d="M76.7,15.7c0-3.9-2.2-5.8-6.6-5.8H57.7l-3.4,15h6.1c1.8,0,3.3-0.5,4.6-1.6
		c1.3-1.1,2.2-2.5,2.8-4.2h0.9l-3,14.2H65c0-4.7-1.6-7-4.9-7h-6L49.6,45h12.9c2.5,0,4.7-0.6,6.6-1.8c1.9-1.2,3.1-2.9,3.8-5h1l-2,8.1
		H39.4V45h4.2L51.7,10h-4.8V8.6h32.9L77.5,18h-0.9C76.7,17,76.7,16.2,76.7,15.7z"/>
	<path id="XMLID_125_" style="fill:#393939;" d="M79.4,45.2h4.7l8.3-35.3h-4.6V8.5h15.8c4.1,0,7.3,0.7,9.4,2.2
		c2.1,1.4,3.2,3.4,3.2,5.8c0,3.2-0.8,5.7-2.4,7.6c-1.6,1.9-3.6,3.3-6.1,4.1c-2.4,0.8-5,1.2-7.6,1.2h-6.3l-3.6,15.8h5.3v1.3H79.4
		V45.2z M105.9,25.9c1.6-1.4,2.8-3.5,3.5-6.4c0.2-0.8,0.3-1.7,0.3-2.6c0-2-0.6-3.7-1.8-5.1c-1.2-1.4-3-2.1-5.3-2.1h-4.1l-4.4,18.2
		h4.2C101.7,28.1,104.3,27.3,105.9,25.9z"/>
	<path id="XMLID_128_" style="fill:#393939;" d="M127.5,45.2c-2.3-1.3-3.9-3.1-5.1-5.3c-1.1-2.2-1.7-4.6-1.7-7.3
		c0-1.5,0.2-3,0.5-4.5c0.8-3.4,2.3-6.6,4.7-9.7c2.3-3.1,5.3-5.6,8.7-7.6C138.1,9,141.8,8,145.8,8c3.2,0,5.9,0.6,8.2,1.9
		c2.3,1.3,4,3,5.1,5.2c1.1,2.2,1.7,4.6,1.7,7.3c0,1.5-0.2,3-0.5,4.5c-0.8,3.4-2.3,6.7-4.7,9.8c-2.4,3.1-5.3,5.6-8.7,7.6
		c-3.5,1.9-7.1,2.9-11,2.9C132.5,47.2,129.8,46.5,127.5,45.2z M137.7,12.1c-2.4,1.8-4.5,4.2-6.2,7.1s-2.9,6-3.7,9.3
		c-0.5,2.3-0.8,4.4-0.8,6.4c0,3.3,0.7,6,2.2,8s3.6,3,6.5,3c2.8,0,5.5-0.9,7.9-2.8c2.5-1.8,4.6-4.2,6.3-7.2c1.7-3,3-6.1,3.7-9.4
		c0.5-2.2,0.8-4.3,0.8-6.3c0-3.3-0.7-5.9-2.2-7.9c-1.5-2-3.7-3-6.7-3C142.7,9.4,140.1,10.3,137.7,12.1z"/>
	<path id="XMLID_131_" style="fill:#393939;" d="M195.7,46.4c-1.1,0.7-2.6,1.1-4.6,1.1c-1.5,0-2.8-0.5-3.9-1.6c-1-1-1.6-2.3-1.6-3.8
		c0-0.3,0.1-0.9,0.2-1.6l2-7.7c0.1-0.5,0.2-1.1,0.2-1.6c0-2.6-2.2-3.9-6.5-3.9h-6.3l-4.4,17.9h6.2l-0.2,1.3h-16.8v-1.3h4.7l8.3-35.3
		h-4.6V8.5h15.8c2.8,0,5.1,0.4,7,1.2c1.9,0.8,3.3,1.9,4.3,3.3c1,1.4,1.5,2.8,1.5,4.4c0,1.5-0.4,2.9-1.3,4.2
		c-0.9,1.3-2.1,2.5-3.8,3.4c-1.7,0.9-3.7,1.5-6.1,1.7v0.1c2.5,0.3,4.5,0.8,5.9,1.6c1.4,0.8,2.2,1.9,2.2,3.5c0,0.4-0.1,0.8-0.2,1.2
		l-2.5,9.8c-0.1,0.5-0.2,1-0.2,1.4c0,1.4,0.6,2.1,1.8,2.1c1.9,0,3.5-1.2,4.7-3.6h0.7C197.6,44.5,196.8,45.6,195.7,46.4z M188.4,23.5
		c1.3-1.6,2-3.5,2-5.7c0-2.1-0.6-4-1.9-5.6c-1.3-1.6-3-2.4-5.3-2.4h-4.1l-3.7,16.1h7.4C185.2,25.9,187.1,25.1,188.4,23.5z"/>
	<path id="XMLID_134_" style="fill:#393939;" d="M234.4,15.8c0-1.9-0.8-3.3-2.4-4.4c-1.6-1.1-3.6-1.6-6-1.6h-4.2l-9,35.3h6.2v1.3
		h-17.4V45h5.3l8.8-35.2H211c-1.9,0-3.8,0.6-5.6,1.8c-1.8,1.2-3,3-3.5,5.3l-1.3-0.1l1.9-8.4h34.9l-2,8.3h-1.2
		C234.3,16.6,234.4,16.3,234.4,15.8z"/>
</g>
</svg>
