<?xml version="1.0" encoding="utf-8"?>
<!-- Generator: Adobe Illustrator 19.0.0, SVG Export Plug-In . SVG Version: 6.00 Build 0)  -->
<svg version="1.1" id="圖層_1" xmlns="http://www.w3.org/2000/svg" xmlns:xlink="http://www.w3.org/1999/xlink" x="0px" y="0px"
	 viewBox="0 0 272.3 62.6" style="enable-background:new 0 0 272.3 62.6;" xml:space="preserve">
<g id="XMLID_93_">
	<path id="XMLID_94_" style="fill:#fff;" d="M33.9,14.6c0.5-0.3,0.8-0.6,1.1-0.9c0.2-0.3,0.4-0.8,0.4-1.4c0-0.4-0.2-0.8-0.7-1.2
		c-0.5-0.4-1.3-0.8-2.4-1.2c-1.1-0.3-2.4-0.5-4.1-0.5c-2.9,0-5.2,0.7-6.8,2c-1.6,1.4-2.4,3.1-2.4,5.2c0,1.2,0.5,2.3,1.4,3.2
		c0.9,0.9,2.3,2,4.2,3.3c1.4,1,2.4,1.7,3,2.2c2.6,2.1,4.6,4,6,5.7c1.3,1.7,2,3.4,2,5.1c0,0.4,0,0.7-0.1,0.9c-0.4,3-2,5.3-4.7,7.1
		C28,46,24.1,46.9,19,46.9c-2.6,0-5-0.5-7-1.6S8.3,43,7.1,41.4c-1.2-1.6-1.7-3.1-1.7-4.5c0-0.9,0.2-1.7,0.7-2.4
		c0.4-0.8,1-1.3,1.7-1.8s1.3-0.6,2-0.6c0.9,0,1.7,0.3,2.4,0.9c0.7,0.6,1.1,1.4,1.1,2.3c0,0.6-0.1,1-0.3,1.3c-0.2,0.3-0.5,0.6-0.9,1
		c-1,0.8-1.7,1.8-2.1,3c-0.2,0.7,0.1,1.5,1.1,2.3c1,0.8,2.2,1.4,3.8,1.9c1.6,0.5,3.1,0.8,4.6,0.8c3.5,0,6.1-0.6,7.8-1.7
		c1.7-1.1,2.6-2.7,2.6-4.8c0-1.7-0.7-3.3-2-4.9c-1.3-1.6-3.4-3.4-6.1-5.5l-1-0.7c-1.7-1.3-3.1-2.4-4.2-3.3s-1.9-2-2.7-3.2
		c-0.8-1.2-1.1-2.4-1.1-3.8c0-0.5,0.1-1,0.2-1.5c0.5-2.6,2.2-4.7,4.8-6.1c2.7-1.4,5.7-2.1,9.1-2.1c3.6,0,6.6,0.7,9,2.2
		c2.4,1.5,3.6,3.5,3.6,6c0,1.4-0.4,2.5-1.3,3.4c-0.9,0.8-1.9,1.2-3.1,1.2c-0.9,0-1.6-0.3-2.3-0.8c-0.6-0.5-0.9-1.2-0.9-2.1
		c0-0.4,0.1-0.9,0.2-1.3C32.4,15.9,33,15.3,33.9,14.6z"/>
	<path id="XMLID_96_" style="fill:#fff;" d="M80.2,15.7c0-3.9-2.2-5.8-6.6-5.8H61.1l-3.4,15h6.1c1.8,0,3.3-0.5,4.6-1.6
		s2.2-2.5,2.8-4.2h0.9l-3,14.2h-0.7c0-4.7-1.6-7-5-7h-6L53.1,45h12.9c2.5,0,4.7-0.6,6.6-1.8c1.9-1.2,3.1-2.9,3.8-5h1l-2,8.1H42.9V45
		h4.2L55.2,10h-4.8V8.6h32.9L80.9,18H80C80.1,17,80.2,16.2,80.2,15.7z"/>
	<path id="XMLID_98_" style="fill:#fff;" d="M119.6,46.4c-1.1,0.7-2.6,1.1-4.6,1.1c-1.5,0-2.8-0.5-3.9-1.6c-1-1-1.6-2.3-1.6-3.8
		c0-0.3,0.1-0.9,0.2-1.6l2-7.7c0.1-0.5,0.2-1.1,0.2-1.6c0-2.6-2.2-3.9-6.5-3.9h-6.3l-4.4,17.9h6.2l-0.2,1.3H84v-1.3h4.7L97,9.8h-4.6
		V8.5h15.8c2.8,0,5.1,0.4,7,1.2c1.9,0.8,3.3,1.9,4.3,3.3c1,1.4,1.5,2.8,1.5,4.4c0,1.5-0.4,2.9-1.3,4.2c-0.9,1.3-2.1,2.5-3.8,3.4
		c-1.7,0.9-3.7,1.5-6.1,1.7v0.1c2.5,0.3,4.5,0.8,5.9,1.6c1.4,0.8,2.2,1.9,2.2,3.5c0,0.4-0.1,0.8-0.2,1.2l-2.5,9.8
		c-0.1,0.5-0.2,1-0.2,1.4c0,1.4,0.6,2.1,1.8,2.1c1.9,0,3.5-1.2,4.7-3.6h0.7C121.5,44.5,120.7,45.6,119.6,46.4z M112.3,23.5
		c1.3-1.6,2-3.5,2-5.7c0-2.1-0.6-4-1.9-5.6c-1.3-1.6-3-2.4-5.3-2.4H103l-3.7,16.1h7.4C109.1,25.9,111,25.1,112.3,23.5z"/>
	<path id="XMLID_101_" style="fill:#fff;" d="M140.7,39.3c4.1-2.5,7.7-5.7,10.9-9.3c3.2-3.7,5.1-7.3,5.9-10.8c0.3-1,0.4-2,0.4-3
		c0-1.1-0.1-2-0.4-2.9c-0.2-0.5-0.3-0.7-0.5-0.7c-0.1,0-0.3,0.3-0.5,1c-0.2,0.7-0.6,1.2-1,1.7c-0.5,0.5-1.2,0.7-2.1,0.6
		c-2.2-0.5-3.2-1.8-3.2-4c0-1.1,0.3-1.9,1-2.6c0.6-0.7,1.7-1,3.1-1c1.7,0,3,0.7,3.9,2.1c0.9,1.4,1.4,3.2,1.4,5.6c0,4.4-2,9.1-6,14.1
		c-4,4.9-8.8,9-14.6,12.2c-5.7,3.2-11,4.7-15.7,4.4l8.4-37h-3.9V8.6h14.9v1h-5.2l-7.8,34.1C132.9,43.3,136.6,41.8,140.7,39.3z"/>
	<path id="XMLID_103_" style="fill:#fff;" d="M172.7,9.8h-5.7V8.5h17.5v1.3h-5.9l-8.1,35.3h4.1v1.3h-15.2v-1.3h5.2L172.7,9.8z"/>
	<path id="XMLID_105_" style="fill:#fff;" d="M218.2,39.7h1.6c-2.4,2.8-4.8,4.8-7.3,5.8c-2.4,1.1-5,1.6-7.7,1.6
		c-2.9,0-5.6-0.7-8.1-2.1s-4.5-3.3-6-5.9c-1.5-2.5-2.3-5.5-2.3-8.9c0-1.7,0.2-3.5,0.7-5.4c0.7-3,2-5.9,3.8-8.4s4.2-4.7,7-6.2
		c2.9-1.6,6-2.3,9.6-2.3c3.7,0,6.7,0.9,9.1,2.6c2.4,1.7,3.5,4.1,3.5,7.2c0,1.5-0.3,2.7-1,3.4c-0.7,0.8-1.8,1.1-3.3,1.1
		c-0.9,0-1.7-0.2-2.3-0.7s-0.9-1.1-0.9-2c0-1,0.3-1.7,1-2.3c0.7-0.6,1.5-0.9,2.4-0.9c1.1,0,2,0.4,2.8,1.1c0-1.6-0.6-3.1-1.7-4.3
		c-1.1-1.2-2.5-2.2-4.2-2.9c-1.7-0.7-3.3-1-4.9-1c-3.7,0-6.8,1.5-9.3,4.5c-2.5,3-4.3,6.8-5.3,11.4c-0.6,2.6-0.9,5-0.9,7.2
		c0,2.8,0.5,5.2,1.4,7.3c0.9,2,2.2,3.5,3.8,4.6c1.6,1,3.4,1.5,5.4,1.5C210,45.8,214.3,43.7,218.2,39.7z"/>
	<path id="XMLID_107_" style="fill:#fff;" d="M262.9,15.7c0-3.9-2.2-5.8-6.6-5.8h-12.5l-3.4,15h6.1c1.8,0,3.3-0.5,4.6-1.6
		c1.3-1.1,2.2-2.5,2.8-4.2h0.9l-3,14.2h-0.7c0-4.7-1.7-7-5-7h-6L235.7,45h12.9c2.5,0,4.7-0.6,6.6-1.8c1.8-1.2,3.1-2.9,3.8-5h1
		l-2,8.1h-32.5V45h4.2l8.1-35.1H233V8.6h32.9l-2.3,9.4h-0.9C262.8,17,262.9,16.2,262.9,15.7z"/>
</g>
</svg>
