<?xml version="1.0" encoding="utf-8"?>
<!-- Generator: Adobe Illustrator 19.0.0, SVG Export Plug-In . SVG Version: 6.00 Build 0)  -->
<svg version="1.1" id="圖層_1" xmlns="http://www.w3.org/2000/svg" xmlns:xlink="http://www.w3.org/1999/xlink" x="0px" y="0px"
	 viewBox="0 0 261.1 62.6" style="enable-background:new 0 0 261.1 62.6;" xml:space="preserve">
<g id="XMLID_54_">
	<path id="XMLID_55_" style="fill:#393939;" d="M20.9,39.3c4.1-2.5,7.7-5.7,10.9-9.3c3.2-3.7,5.1-7.3,5.9-10.8c0.3-1,0.4-2,0.4-3
		c0-1.1-0.1-2-0.4-2.9c-0.2-0.5-0.3-0.7-0.5-0.7c-0.1,0-0.3,0.3-0.5,1c-0.2,0.7-0.6,1.2-1,1.7c-0.5,0.5-1.2,0.7-2.1,0.6
		c-2.2-0.5-3.2-1.8-3.2-4c0-1.1,0.3-1.9,1-2.6c0.6-0.7,1.7-1,3.1-1c1.7,0,3,0.7,3.9,2.1c0.9,1.4,1.4,3.2,1.4,5.6c0,4.4-2,9.1-6,14.1
		c-4,4.9-8.8,9-14.6,12.2c-5.7,3.2-11,4.7-15.7,4.4l8.4-37H7.8V8.6h14.9v1h-5.2L9.7,43.7C13.1,43.3,16.8,41.8,20.9,39.3z"/>
	<path id="XMLID_57_" style="fill:#393939;" d="M75.9,15.7c0-3.9-2.2-5.8-6.6-5.8H56.8l-3.4,15h6.1c1.8,0,3.3-0.5,4.6-1.6
		c1.3-1.1,2.2-2.5,2.8-4.2h0.9l-3,14.2h-0.7c0-4.7-1.6-7-4.9-7h-6L48.7,45h12.9c2.5,0,4.7-0.6,6.6-1.8c1.9-1.2,3.1-2.9,3.8-5h1
		l-2,8.1H38.5V45h4.2L50.8,10H46V8.6h32.9L76.6,18h-0.9C75.8,17,75.9,16.2,75.9,15.7z"/>
	<path id="XMLID_59_" style="fill:#393939;" d="M87.5,45.2H94v1.3H81.1v-1.3h5l9.5-35.6h-6.5V8.4h12.3v0.1l14.9,35l7.6-33.7h-6.4
		V8.5h14.5v1.3h-6.8L117,46.5h-6.8l-14-34.3L87.5,45.2z"/>
	<path id="XMLID_61_" style="fill:#393939;" d="M169.6,11.1c3,1.5,5.2,3.5,6.7,6c1.4,2.4,2.2,5.1,2.2,7.9c0,1.3-0.2,2.7-0.5,4.1
		c-0.7,3.1-2.1,5.9-4.3,8.6c-2.2,2.7-4.9,4.8-8.4,6.4s-7.2,2.4-11.5,2.4h-19.7v-1.4h5.1l9.2-35.3h-5.9V8.5h16
		C162.9,8.7,166.6,9.5,169.6,11.1z M146.9,45.2c6.5,0,11.6-1.1,15.3-3.4c3.7-2.3,6.3-5.1,7.7-8.4c1.4-3.3,2.1-6.9,2.1-10.6
		c0-4.1-1.4-7.3-4.3-9.5c-2.9-2.3-7.3-3.3-13.2-3.3l-9.4,35.3L146.9,45.2z"/>
	<path id="XMLID_64_" style="fill:#393939;" d="M189.6,45.2c-2.3-1.3-3.9-3.1-5.1-5.3c-1.1-2.2-1.7-4.6-1.7-7.3c0-1.5,0.2-3,0.5-4.5
		c0.8-3.4,2.3-6.6,4.7-9.7c2.3-3.1,5.3-5.6,8.7-7.6C200.3,9,203.9,8,207.9,8c3.2,0,5.9,0.6,8.2,1.9c2.3,1.3,4,3,5.1,5.2
		c1.1,2.2,1.7,4.6,1.7,7.3c0,1.5-0.2,3-0.5,4.5c-0.8,3.4-2.3,6.7-4.7,9.8c-2.4,3.1-5.3,5.6-8.7,7.6c-3.5,1.9-7.1,2.9-11,2.9
		C194.6,47.2,191.9,46.5,189.6,45.2z M199.8,12.1c-2.4,1.8-4.5,4.2-6.2,7.1s-2.9,6-3.7,9.3c-0.5,2.3-0.8,4.4-0.8,6.4
		c0,3.3,0.7,6,2.2,8s3.6,3,6.5,3c2.8,0,5.5-0.9,7.9-2.8c2.5-1.8,4.6-4.2,6.3-7.2c1.7-3,3-6.1,3.7-9.4c0.5-2.2,0.8-4.3,0.8-6.3
		c0-3.3-0.7-5.9-2.2-7.9c-1.5-2-3.7-3-6.7-3C204.8,9.4,202.2,10.3,199.8,12.1z"/>
	<path id="XMLID_67_" style="fill:#393939;" d="M257.8,46.4c-1.1,0.7-2.6,1.1-4.6,1.1c-1.5,0-2.8-0.5-3.9-1.6c-1-1-1.6-2.3-1.6-3.8
		c0-0.3,0.1-0.9,0.2-1.6l2-7.7c0.1-0.5,0.2-1.1,0.2-1.6c0-2.6-2.2-3.9-6.5-3.9h-6.3L233,45.2h6.2l-0.2,1.3h-16.8v-1.3h4.7l8.3-35.3
		h-4.6V8.5h15.8c2.8,0,5.1,0.4,7,1.2c1.9,0.8,3.3,1.9,4.3,3.3c1,1.4,1.5,2.8,1.5,4.4c0,1.5-0.4,2.9-1.3,4.2
		c-0.9,1.3-2.1,2.5-3.8,3.4c-1.7,0.9-3.7,1.5-6.1,1.7v0.1c2.5,0.3,4.5,0.8,5.9,1.6c1.4,0.8,2.2,1.9,2.2,3.5c0,0.4-0.1,0.8-0.2,1.2
		l-2.5,9.8c-0.1,0.5-0.2,1-0.2,1.4c0,1.4,0.6,2.1,1.8,2.1c1.9,0,3.5-1.2,4.7-3.6h0.7C259.7,44.5,258.9,45.6,257.8,46.4z M250.5,23.5
		c1.3-1.6,2-3.5,2-5.7c0-2.1-0.6-4-1.9-5.6c-1.3-1.6-3-2.4-5.3-2.4h-4.1l-3.7,16.1h7.4C247.3,25.9,249.2,25.1,250.5,23.5z"/>
</g>
</svg>
