<?xml version="1.0" encoding="utf-8"?>
<!-- Generator: Adobe Illustrator 19.0.0, SVG Export Plug-In . SVG Version: 6.00 Build 0)  -->
<svg version="1.1" id="圖層_1" xmlns="http://www.w3.org/2000/svg" xmlns:xlink="http://www.w3.org/1999/xlink" x="0px" y="0px"
	 viewBox="0 0 28 28" style="enable-background:new 0 0 28 28;" xml:space="preserve">
<g id="XMLID_209_">
	<circle id="XMLID_1550_" style="fill:#FFFFFF;" cx="14" cy="14" r="13.6"/>
	<path id="XMLID_1066_" style="fill:#B2B1B1;" d="M10.7,15l0.2-0.6c0,0,0.1-0.3-0.1-0.5c0,0-0.5-0.7-0.5-1.6c0-0.9,0.6-3.7,3.9-3.7
		c0,0,3.1-0.1,3.1,3.1c0,0,0,2.9-1.6,3.8c-1.6,0.9-2.3-0.8-2-1.6c0.3-0.8,0.7-2.1,0.6-2.5c0-0.5-0.3-1.1-1.1-1.1
		c-0.8,0-1.6,0.9-1.5,2c0,0,0.1,0.7,0.3,1.2l-0.9,4.1c0,0-0.2,0.8-0.2,1.2c0,0.5,0.1,1.8,0.1,1.8s0,0.2,0.1,0.2
		c0.1,0,0.3-0.2,0.4-0.4c0.1-0.2,0.9-1.1,1.2-2.6l0.4-1.7c0,0,0.7,1,1.9,0.9c1.2,0,2.7-0.6,3.5-2.4c0.8-1.8,0.7-3,0.7-3
		S19,7.1,14,7.3C9,7.5,8.8,12,8.8,12s-0.2,2.2,1.5,3.1C10.3,15,10.7,15.2,10.7,15z"/>
</g>
</svg>
