<?xml version="1.0" encoding="utf-8"?>
<!-- Generator: Adobe Illustrator 19.0.0, SVG Export Plug-In . SVG Version: 6.00 Build 0)  -->
<svg version="1.1" id="圖層_1" xmlns="http://www.w3.org/2000/svg" xmlns:xlink="http://www.w3.org/1999/xlink" x="0px" y="0px"
	 viewBox="0 0 142.7 32" style="enable-background:new 0 0 142.7 32;" xml:space="preserve">
<g id="XMLID_51_">
	<linearGradient id="XMLID_86_" gradientUnits="userSpaceOnUse" x1="19.3131" y1="21.7106" x2="24.5539" y2="21.7106">
		<stop  offset="0" style="stop-color:#EFC8B1"/>
		<stop  offset="1" style="stop-color:#C34C75"/>
	</linearGradient>
	<path id="XMLID_58_" style="fill:url(#XMLID_86_);" d="M19.3,22c0.1,0.2,1.1,1.2,2.8,1.8c0.1,0,1.3,0.1,1.4,0
		c1.2-0.8,1.2,0.5,0.8-2c0-0.1,0-0.3-0.1-0.2c-1.2,0.2-3.2-1-4-1.9C19.8,20.8,19.7,21,19.3,22z"/>
	<linearGradient id="XMLID_87_" gradientUnits="userSpaceOnUse" x1="27.1245" y1="38.65" x2="27.1245" y2="-1.6363">
		<stop  offset="0" style="stop-color:#EFC8B1"/>
		<stop  offset="1" style="stop-color:#C34C75"/>
	</linearGradient>
	<path id="XMLID_57_" style="fill:url(#XMLID_87_);" d="M26.5,23c2.3-1.6,6.8-8.8,7.1-13.1c0.2-2.4-1.1-4.2-3.1-5.1
		c-1.2-0.4-2.2-0.5-3.5,0.1c1.6,0.2,3.4,2.3,3.5,4.3c0.1,2.7-3,8.2-4.3,10c-0.8,1.1-3,4-5.4,3.9C23.3,24.8,25.4,23.7,26.5,23z"/>
	<linearGradient id="XMLID_88_" gradientUnits="userSpaceOnUse" x1="14.3793" y1="0.6125" x2="14.3793" y2="26.3019">
		<stop  offset="0" style="stop-color:#EFC8B1"/>
		<stop  offset="1" style="stop-color:#C34C75"/>
	</linearGradient>
	<path id="XMLID_56_" style="fill:url(#XMLID_88_);" d="M15,19c-1.9-2.9-3.6-6.5-3.8-9.2c-0.2-2.4,0.9-4.2,2.9-5
		c1.2-0.4,2.2-0.5,3.5,0.1c-1.6,0.2-3.4,2.3-3.5,4.3c-0.1,1.7,1.2,5,2.7,6.8C17,17.4,16.5,19.2,15,19z"/>
	<linearGradient id="XMLID_89_" gradientUnits="userSpaceOnUse" x1="23.5444" y1="38.65" x2="23.5444" y2="-1.6363">
		<stop  offset="0" style="stop-color:#EFC8B1"/>
		<stop  offset="1" style="stop-color:#C34C75"/>
	</linearGradient>
	<path id="XMLID_55_" style="fill:url(#XMLID_89_);" d="M34.1,29c0,0-2.7-7-6.3-13.3c-3.3-5.8-5.6-9.5-7.6-10.7
		c-2-1.2-5.1-1.2-7.2,0.3c2.1-0.3,3.4,0.2,4.6,1.5c5.4,6.3,9.7,19.2,10.6,21.6C29,31.1,34,30.5,34.1,29z"/>
	<linearGradient id="XMLID_90_" gradientUnits="userSpaceOnUse" x1="36.134" y1="0.6125" x2="36.134" y2="26.3019">
		<stop  offset="0" style="stop-color:#EFC8B1"/>
		<stop  offset="1" style="stop-color:#C34C75"/>
	</linearGradient>
	<path id="XMLID_54_" style="fill:url(#XMLID_90_);" d="M28.5,29c1,1.4,3.7,1.3,4.5,1.2c1.2-0.3,2.3-1.3,2.9-2.9
		c1.2-2.9,7.6-22.2,7.8-23c0.2-0.8,0-2.3-2-2.5c-1.9-0.2-2.8,0.5-3.3,2.1s-5.8,18.5-6.4,20.4C31.6,25.7,31.1,29.3,28.5,29z"/>
	<linearGradient id="XMLID_91_" gradientUnits="userSpaceOnUse" x1="20.9713" y1="0.6125" x2="20.9713" y2="26.3019">
		<stop  offset="0" style="stop-color:#EFC8B1"/>
		<stop  offset="1" style="stop-color:#C34C75"/>
	</linearGradient>
	<path id="XMLID_53_" style="fill:url(#XMLID_91_);" d="M10.4,29c0,0,2.7-7,6.3-13.3c3.3-5.8,5.6-9.5,7.6-10.7
		c2-1.2,5.1-1.2,7.2,0.3c-2.1-0.3-3.4,0.2-4.6,1.5c-5.4,6.3-9.8,19.2-10.7,21.6C15.4,30.9,10.5,30.5,10.4,29z"/>
	<linearGradient id="XMLID_92_" gradientUnits="userSpaceOnUse" x1="8.3642" y1="38.65" x2="8.3642" y2="-1.6363">
		<stop  offset="0" style="stop-color:#EFC8B1"/>
		<stop  offset="1" style="stop-color:#C34C75"/>
	</linearGradient>
	<path id="XMLID_52_" style="fill:url(#XMLID_92_);" d="M16,29c-1,1.4-3.7,1.3-4.5,1.2c-1.2-0.3-2.3-1.3-2.9-2.9
		C7.4,24.4,1,5.1,0.8,4.3s0-2.3,2-2.5c1.9-0.2,2.8,0.5,3.3,2.1s5.8,18.5,6.4,20.4C12.9,25.7,13.4,29.3,16,29z"/>
</g>
<g id="XMLID_27_">
	<g id="XMLID_256_">
		<path id="XMLID_278_" style="fill:#CF4D79;" d="M55.8,21.6c0,0,0,0.1,0,0.1c0,0-0.1,0.1-0.1,0.1c0,0-0.1,0-0.2,0
			c-0.1,0-0.2,0-0.3,0c-0.1,0-0.2,0-0.3,0c-0.1,0-0.1,0-0.2,0c0,0-0.1,0-0.1-0.1c0,0,0-0.1,0-0.1l0-8.3c0,0-3,4.9-3.3,5.3
			c-0.3,0.4-0.9,0.4-1.2,0c-0.2-0.3-3.2-5.4-3.2-5.4l0,8.3c0,0,0,0.1,0,0.1c0,0-0.1,0.1-0.1,0.1c0,0-0.1,0-0.2,0c-0.1,0-0.2,0-0.3,0
			c-0.1,0-0.2,0-0.3,0c-0.1,0-0.1,0-0.2,0c0,0-0.1,0-0.1-0.1c0,0,0-0.1,0-0.1v-9c0-0.2,0.1-0.4,0.2-0.5c0.1-0.1,0.2-0.1,0.4-0.1H47
			c0.2,0,0.3,0,0.4,0c0.1,0,0.2,0.1,0.3,0.1c0.1,0.1,0.2,0.1,0.2,0.2c0.1,0.1,2.8,4.4,2.8,4.4h0c0,0,2.9-4.3,3-4.4
			c0.1-0.1,0.1-0.2,0.2-0.3c0.1-0.1,0.2-0.1,0.3-0.1c0.1,0,0.2,0,0.3,0h0.8c0.1,0,0.1,0,0.2,0c0.1,0,0.1,0.1,0.2,0.1
			c0,0,0.1,0.1,0.1,0.2c0,0.1,0,0.2,0,0.3V21.6z"/>
		<path id="XMLID_276_" style="fill:#CF4D79;" d="M62.7,18v3.6c0,0,0,0.1,0,0.1c0,0-0.1,0.1-0.1,0.1c-0.1,0-0.1,0-0.2,0
			c-0.1,0-0.2,0-0.3,0c-0.1,0-0.2,0-0.3,0c-0.1,0-0.2,0-0.2,0c-0.1,0-0.1,0-0.1-0.1c0,0,0-0.1,0-0.1V18l-3-5.5
			c-0.1-0.1-0.1-0.2-0.1-0.3c0-0.1,0-0.1,0-0.2c0,0,0.1-0.1,0.2-0.1c0.1,0,0.3,0,0.4,0c0.2,0,0.3,0,0.4,0c0.1,0,0.2,0,0.2,0
			c0.1,0,0.1,0,0.1,0.1c0,0,0.1,0.1,0.1,0.1l1.5,2.8c0.1,0.3,0.3,0.5,0.4,0.8c0.1,0.3,0.3,0.6,0.4,0.9h0c0.1-0.3,0.3-0.6,0.4-0.9
			c0.1-0.3,0.3-0.6,0.4-0.8l1.5-2.8c0-0.1,0-0.1,0.1-0.1c0,0,0.1-0.1,0.1-0.1c0.1,0,0.1,0,0.2,0c0.1,0,0.2,0,0.4,0
			c0.2,0,0.4,0,0.5,0c0.1,0,0.2,0,0.2,0.1c0,0,0.1,0.1,0,0.2c0,0.1-0.1,0.2-0.1,0.3L62.7,18z"/>
		<path id="XMLID_274_" style="fill:#CF4D79;" d="M81.7,21.4c0,0.1-0.1,0.1-0.1,0.2c0,0-0.1,0.1-0.2,0.1c-0.1,0-0.2,0-0.3,0
			c-0.1,0-0.2,0-0.4,0c-0.2,0-0.3,0-0.4,0c-0.1,0-0.2,0-0.3,0c-0.1,0-0.1-0.1-0.2-0.1c0,0-0.1-0.1-0.1-0.2L78,15.9
			c0-0.1-0.2-0.1-0.3,0l-1.9,5.5c0,0.1,0,0.1-0.1,0.2c0,0-0.1,0.1-0.2,0.1c-0.1,0-0.2,0-0.3,0c-0.1,0-0.2,0-0.4,0
			c-0.2,0-0.3,0-0.4,0c-0.1,0-0.2,0-0.3,0c-0.1,0-0.1-0.1-0.2-0.1c0,0-0.1-0.1-0.1-0.2l-2.6-9c0-0.1,0-0.2-0.1-0.3
			c0-0.1,0-0.1,0.1-0.2s0.1-0.1,0.2-0.1c0.1,0,0.2,0,0.4,0c0.2,0,0.3,0,0.4,0c0.1,0,0.2,0,0.2,0c0,0,0.1,0,0.1,0.1c0,0,0,0.1,0,0.1
			l2.2,8.2h0c0,0,2.2-6.3,2.3-6.7c0.1-0.3,1.4-0.3,1.5,0c0.1,0.3,2.1,6.7,2.1,6.7h0l2.2-8.2c0-0.1,0-0.1,0-0.1c0,0,0-0.1,0.1-0.1
			c0,0,0.1,0,0.2,0c0.1,0,0.2,0,0.4,0c0.2,0,0.3,0,0.4,0c0.1,0,0.2,0,0.2,0.1c0,0,0.1,0.1,0.1,0.2c0,0.1,0,0.2,0,0.3L81.7,21.4z"/>
		<path id="XMLID_272_" style="fill:#CF4D79;" d="M93,21.3c0,0.1,0,0.2,0,0.2c0,0.1,0,0.1-0.1,0.2c0,0-0.1,0.1-0.1,0.1
			c0,0-0.1,0-0.1,0h-5.1c-0.1,0-0.2,0-0.4-0.1c-0.1-0.1-0.2-0.2-0.2-0.4v-8.7c0-0.2,0.1-0.3,0.2-0.4c0.1-0.1,0.2-0.1,0.4-0.1h5
			c0,0,0.1,0,0.1,0c0,0,0.1,0.1,0.1,0.1c0,0,0,0.1,0.1,0.2c0,0.1,0,0.2,0,0.3c0,0.1,0,0.2,0,0.2c0,0.1,0,0.1-0.1,0.2
			c0,0-0.1,0.1-0.1,0.1c0,0-0.1,0-0.1,0h-3.8c-0.2,0-0.4,0.2-0.4,0.4v2.3c0,0.2,0.2,0.4,0.4,0.4H92c0,0,0.1,0,0.1,0
			c0,0,0.1,0.1,0.1,0.1s0,0.1,0.1,0.2c0,0.1,0,0.2,0,0.2c0,0.1,0,0.2,0,0.2c0,0.1,0,0.1-0.1,0.2s-0.1,0.1-0.1,0.1c0,0-0.1,0-0.1,0
			h-3.2c-0.2,0-0.4,0.2-0.4,0.4v2.8c0,0.2,0.2,0.4,0.4,0.4h3.8c0,0,0.1,0,0.1,0c0,0,0.1,0.1,0.1,0.1c0,0,0,0.1,0.1,0.2
			C93,21.1,93,21.2,93,21.3z"/>
		<path id="XMLID_269_" style="fill:#CF4D79;" d="M104.1,16.8c-0.1,3.2-1.5,4.2-3,4.7c-0.8,0.3-3,0.4-4.1,0.3
			c-0.5-0.1-1.1-0.5-1.1-1.1l0-7.6c0-0.7,0.5-1.1,1-1.1c0.4,0,2,0,2,0c0.9,0,1.7,0.1,2.3,0.3c0.6,0.2,1.2,0.5,1.6,0.9
			c0.4,0.4,0.8,0.9,1,1.5C103.9,15.4,104.1,16.1,104.1,16.8z M102.6,16.9c0-0.5-0.1-1-0.2-1.5c-0.1-0.5-0.4-0.8-0.7-1.2
			c-0.3-0.3-0.7-0.6-1.2-0.8c-0.5-0.2-1.1-0.3-1.8-0.3h-0.9c-0.3,0-0.5,0.2-0.5,0.5v6.5c0,0.3,0.2,0.5,0.5,0.5h0.9
			c0.7,0,1.3-0.1,1.7-0.2c0.5-0.2,0.9-0.4,1.2-0.7c0.3-0.3,0.5-0.7,0.7-1.2C102.5,18.1,102.6,17.5,102.6,16.9z"/>
		<path id="XMLID_266_" style="fill:#CF4D79;" d="M115.1,16.8c-0.1,3.2-1.5,4.2-3,4.7c-0.8,0.3-3,0.4-4.1,0.3
			c-0.5-0.1-1.1-0.5-1.1-1.1l0-7.6c0-0.7,0.5-1.1,1-1.1c0.4,0,2,0,2,0c0.9,0,1.7,0.1,2.3,0.3c0.6,0.2,1.2,0.5,1.6,0.9
			c0.4,0.4,0.8,0.9,1,1.5C115,15.4,115.2,16.1,115.1,16.8z M113.6,16.9c0-0.5-0.1-1-0.2-1.5c-0.1-0.5-0.4-0.8-0.7-1.2
			c-0.3-0.3-0.7-0.6-1.2-0.8c-0.5-0.2-1.1-0.3-1.8-0.3h-0.9c-0.3,0-0.5,0.2-0.5,0.5v6.5c0,0.3,0.2,0.5,0.5,0.5h0.9
			c0.7,0,1.3-0.1,1.7-0.2c0.5-0.2,0.9-0.4,1.2-0.7c0.3-0.3,0.5-0.7,0.7-1.2C113.6,18.1,113.6,17.5,113.6,16.9z"/>
		<path id="XMLID_264_" style="fill:#CF4D79;" d="M130.8,21.3c0,0.1,0,0.2-0.1,0.3c0,0.1-0.1,0.1-0.1,0.2s-0.1,0.1-0.2,0.1
			c-0.1,0-0.1,0-0.2,0h-0.5c-0.1,0-0.3,0-0.4,0c-0.1,0-0.2-0.1-0.3-0.2c-0.1-0.1-0.2-0.2-0.3-0.3c-0.1-0.1-0.2-0.3-0.3-0.5l-3.2-5.6
			c-0.2-0.3-0.3-0.6-0.5-0.9c-0.2-0.3-0.3-0.6-0.5-0.9h0c0,0.4,0,0.7,0,1.1c0,0.4,0,0.8,0,1.1v5.9c0,0,0,0.1,0,0.1
			c0,0-0.1,0.1-0.1,0.1c-0.1,0-0.1,0-0.2,0c-0.1,0-0.2,0-0.3,0c-0.1,0-0.3,0-0.3,0c-0.1,0-0.2,0-0.2,0c-0.1,0-0.1,0-0.1-0.1
			c0,0,0-0.1,0-0.1v-9c0-0.2,0.1-0.3,0.2-0.4c0.1-0.1,0.3-0.1,0.4-0.1h0.7c0.2,0,0.3,0,0.4,0c0.1,0,0.2,0.1,0.3,0.1
			c0.1,0.1,0.2,0.1,0.3,0.2c0.1,0.1,0.2,0.2,0.3,0.4l2.5,4.3c0.2,0.3,0.3,0.5,0.4,0.8c0.1,0.2,0.3,0.5,0.4,0.7
			c0.1,0.2,0.3,0.5,0.4,0.7c0.1,0.2,0.3,0.5,0.4,0.7h0c0-0.4,0-0.8,0-1.2c0-0.4,0-0.8,0-1.2v-5.3c0,0,0-0.1,0-0.1
			c0,0,0.1-0.1,0.1-0.1c0.1,0,0.1,0,0.2,0c0.1,0,0.2,0,0.4,0c0.1,0,0.2,0,0.3,0c0.1,0,0.2,0,0.2,0c0.1,0,0.1,0,0.1,0.1
			c0,0,0,0.1,0,0.1V21.3z"/>
		<path id="XMLID_262_" style="fill:#CF4D79;" d="M141.8,13.6c0,0.1,0,0.2,0,0.3c0,0.1,0,0.1,0,0.2c0,0,0,0.1-0.1,0.1
			c0,0-0.1,0-0.1,0c-0.1,0-0.2,0-0.3-0.1c-0.2-0.1-0.4-0.2-0.6-0.3c-0.3-0.1-0.6-0.2-0.9-0.3c-0.4-0.1-0.8-0.1-1.3-0.1
			c-0.6,0-1.1,0.1-1.6,0.3c-0.5,0.2-0.9,0.5-1.2,0.8c-0.3,0.3-0.6,0.8-0.7,1.2c-0.2,0.5-0.3,1-0.3,1.6c0,0.6,0.1,1.2,0.3,1.7
			c0.2,0.5,0.5,0.9,0.8,1.2s0.7,0.6,1.2,0.8c0.5,0.2,1,0.3,1.5,0.3c0.3,0,0.7,0,1-0.1c0.3-0.1,0.5-0.1,0.7-0.2
			c0.1-0.1,0.2-0.2,0.2-0.3v-2.2c0-0.2-0.2-0.4-0.4-0.4h-2.1c-0.1,0-0.2,0-0.2-0.1c0-0.1-0.1-0.2-0.1-0.4c0-0.1,0-0.2,0-0.2
			c0-0.1,0-0.1,0.1-0.2c0,0,0.1-0.1,0.1-0.1c0,0,0.1,0,0.1,0h3.4c0.1,0,0.1,0,0.2,0c0.1,0,0.1,0.1,0.2,0.1c0,0,0.1,0.1,0.1,0.2
			c0,0.1,0,0.2,0,0.2v3.7c0,0.1,0,0.2-0.1,0.3c0,0.1-0.2,0.2-0.3,0.3c-0.2,0.1-0.4,0.2-0.6,0.2c-0.3,0.1-0.5,0.2-0.8,0.2
			c-0.3,0.1-0.5,0.1-0.8,0.1c-0.3,0-0.5,0-0.8,0c-0.8,0-1.6-0.1-2.2-0.4c-0.6-0.2-1.2-0.6-1.6-1c-0.4-0.4-0.8-1-1-1.6
			c-0.2-0.6-0.4-1.3-0.4-2c0-0.8,0.1-1.5,0.4-2.1c0.3-0.6,0.6-1.2,1.1-1.6c0.5-0.4,1-0.8,1.7-1s1.4-0.4,2.2-0.4c0.4,0,0.8,0,1.1,0.1
			c0.4,0.1,0.7,0.1,0.9,0.2c0.3,0.1,0.5,0.2,0.7,0.3c0.2,0.1,0.3,0.2,0.4,0.3c0.1,0.1,0.1,0.1,0.1,0.2
			C141.7,13.3,141.8,13.4,141.8,13.6z"/>
		<g id="XMLID_257_">
			<path id="XMLID_260_" style="fill:#CF4D79;" d="M119.4,21.8c0,0,0,0.1,0,0.1c0,0-0.1,0.1-0.1,0.1c-0.1,0-0.1,0-0.2,0
				c-0.1,0-0.2,0-0.3,0c-0.1,0-0.2,0-0.3,0c-0.1,0-0.2,0-0.2,0c-0.1,0-0.1,0-0.1-0.1c0,0,0-0.1,0-0.1v-6.6c0,0,0-0.1,0-0.1
				c0,0,0.1-0.1,0.1-0.1c0.1,0,0.1,0,0.2,0c0.1,0,0.2,0,0.3,0c0.1,0,0.3,0,0.3,0c0.1,0,0.2,0,0.2,0c0.1,0,0.1,0,0.1,0.1
				c0,0,0,0.1,0,0.1V21.8z"/>
			<path id="XMLID_258_" style="fill:#CF4D79;" d="M119.4,13.9c0,0,0,0.1,0,0.1c0,0-0.1,0.1-0.1,0.1c-0.1,0-0.1,0-0.2,0
				c-0.1,0-0.2,0-0.3,0c-0.1,0-0.2,0-0.3,0c-0.1,0-0.2,0-0.2,0c-0.1,0-0.1,0-0.1-0.1c0,0,0-0.1,0-0.1v-1.7c0,0,0-0.1,0-0.1
				c0,0,0.1-0.1,0.1-0.1c0.1,0,0.1,0,0.2,0c0.1,0,0.2,0,0.3,0c0.1,0,0.3,0,0.3,0c0.1,0,0.2,0,0.2,0c0.1,0,0.1,0,0.1,0.1
				c0,0,0,0.1,0,0.1V13.9z"/>
		</g>
	</g>
</g>
</svg>
