<?xml version="1.0" encoding="utf-8"?>
<!-- Generator: Adobe Illustrator 19.0.0, SVG Export Plug-In . SVG Version: 6.00 Build 0)  -->
<svg version="1.1" id="圖層_1" xmlns="http://www.w3.org/2000/svg" xmlns:xlink="http://www.w3.org/1999/xlink" x="0px" y="0px"
	 viewBox="0 0 89 75" style="enable-background:new 0 0 89 75;" xml:space="preserve">
<linearGradient id="XMLID_2_" gradientUnits="userSpaceOnUse" x1="38.4827" y1="41.4023" x2="48.9263" y2="41.4023">
	<stop  offset="0" style="stop-color:#EFC8B1"/>
	<stop  offset="1" style="stop-color:#C34C75"/>
</linearGradient>
<path id="XMLID_92_" style="fill:url(#XMLID_2_);" d="M38.5,41.9c0.1,0.4,2.2,2.3,5.5,3.5c0.2,0.1,2.6,0.1,2.8,0
	c2.5-1.7,2.4,1,1.7-3.9c0-0.2-0.1-0.5-0.3-0.5c-2.4,0.3-6.4-2-8-3.8C39.4,39.5,39.2,40.1,38.5,41.9z"/>
<linearGradient id="XMLID_3_" gradientUnits="userSpaceOnUse" x1="54.0487" y1="75.1581" x2="54.0487" y2="-5.122">
	<stop  offset="0" style="stop-color:#EFC8B1"/>
	<stop  offset="1" style="stop-color:#C34C75"/>
</linearGradient>
<path id="XMLID_91_" style="fill:url(#XMLID_3_);" d="M52.7,43.9c4.6-3.3,13.5-17.6,14.1-26c0.3-4.8-2.2-8.5-6.2-10.1
	c-2.5-0.8-4.4-1-6.9,0.1c3.1,0.4,6.8,4.5,6.9,8.5c0.2,5.3-6,16.4-8.5,19.9c-1.5,2.3-6,8.1-10.8,7.8C46.3,47.5,50.6,45.4,52.7,43.9z"
	/>
<linearGradient id="XMLID_4_" gradientUnits="userSpaceOnUse" x1="28.6509" y1="-0.6408" x2="28.6509" y2="50.5516">
	<stop  offset="0" style="stop-color:#EFC8B1"/>
	<stop  offset="1" style="stop-color:#C34C75"/>
</linearGradient>
<path id="XMLID_90_" style="fill:url(#XMLID_4_);" d="M29.8,36c-3.8-5.7-7.2-13-7.5-18.3c-0.3-4.8,1.8-8.3,5.8-10
	c2.5-0.8,4.4-1,6.9,0.1c-3.1,0.4-6.8,4.5-6.9,8.5c-0.1,3.4,2.4,9.9,5.3,13.6C33.9,32.8,32.9,36.4,29.8,36z"/>
<linearGradient id="XMLID_5_" gradientUnits="userSpaceOnUse" x1="46.9146" y1="75.1581" x2="46.9146" y2="-5.122">
	<stop  offset="0" style="stop-color:#EFC8B1"/>
	<stop  offset="1" style="stop-color:#C34C75"/>
</linearGradient>
<path id="XMLID_89_" style="fill:url(#XMLID_5_);" d="M67.9,56c0,0-5.4-13.9-12.5-26.5c-6.6-11.6-11.2-19-15.2-21.2
	C36.2,6,30.1,6,25.9,9c4.1-0.6,6.8,0.3,9.1,3c10.7,12.6,19.4,38.3,21.1,43.1C57.9,60,67.7,58.9,67.9,56z"/>
<linearGradient id="XMLID_7_" gradientUnits="userSpaceOnUse" x1="72.0023" y1="-0.6408" x2="72.0023" y2="50.5516">
	<stop  offset="0" style="stop-color:#EFC8B1"/>
	<stop  offset="1" style="stop-color:#C34C75"/>
</linearGradient>
<path id="XMLID_88_" style="fill:url(#XMLID_7_);" d="M56.8,56c2,2.9,7.5,2.7,8.9,2.4c2.3-0.5,4.5-2.7,5.8-5.8
	c2.4-5.8,15.2-44.3,15.6-45.9c0.4-1.6,0.1-4.5-3.9-5c-3.8-0.5-5.6,1-6.6,4.1c-1,3.1-11.5,36.9-12.7,40.7C63,49.4,62,56.6,56.8,56z"
	/>
<linearGradient id="XMLID_8_" gradientUnits="userSpaceOnUse" x1="41.787" y1="-0.6408" x2="41.787" y2="50.5516">
	<stop  offset="0" style="stop-color:#EFC8B1"/>
	<stop  offset="1" style="stop-color:#C34C75"/>
</linearGradient>
<path id="XMLID_87_" style="fill:url(#XMLID_8_);" d="M20.8,56c0,0,5.4-13.9,12.5-26.5c6.6-11.6,11.2-19,15.2-21.2
	C52.5,6,58.6,6,62.8,9c-4.1-0.6-6.8,0.3-9.1,3C43,24.6,34.1,50.2,32.3,55.1C30.6,59.7,21,58.9,20.8,56z"/>
<linearGradient id="XMLID_9_" gradientUnits="userSpaceOnUse" x1="16.6644" y1="75.1581" x2="16.6644" y2="-5.122">
	<stop  offset="0" style="stop-color:#EFC8B1"/>
	<stop  offset="1" style="stop-color:#C34C75"/>
</linearGradient>
<path id="XMLID_86_" style="fill:url(#XMLID_9_);" d="M31.9,56c-2,2.9-7.5,2.7-8.9,2.4c-2.3-0.5-4.5-2.7-5.8-5.8
	C14.8,46.8,2,8.3,1.6,6.6s-0.1-4.5,3.9-5c3.8-0.5,5.6,1,6.6,4.1s11.5,36.9,12.7,40.7C25.6,49.4,26.7,56.6,31.9,56z"/>
<g id="XMLID_6_">
	<g id="XMLID_204_">
		<path id="XMLID_226_" style="fill:#CF4D79;" d="M16.8,73.6C16.8,73.6,16.8,73.7,16.8,73.6c0,0.1-0.1,0.1-0.1,0.1c0,0-0.1,0-0.1,0
			c-0.1,0-0.1,0-0.2,0c-0.1,0-0.2,0-0.2,0c-0.1,0-0.1,0-0.1,0c0,0-0.1,0-0.1-0.1c0,0,0,0,0-0.1l0-6.1c0,0-2.2,3.6-2.4,3.9
			s-0.7,0.3-0.9,0c-0.1-0.2-2.3-3.9-2.3-3.9l0,6.1c0,0,0,0.1,0,0.1c0,0,0,0-0.1,0.1c0,0-0.1,0-0.1,0c-0.1,0-0.1,0-0.2,0
			c-0.1,0-0.2,0-0.2,0c-0.1,0-0.1,0-0.1,0c0,0-0.1,0-0.1-0.1c0,0,0,0,0-0.1V67c0-0.2,0-0.3,0.1-0.3c0.1-0.1,0.2-0.1,0.3-0.1h0.6
			c0.1,0,0.2,0,0.3,0c0.1,0,0.2,0.1,0.2,0.1c0.1,0,0.1,0.1,0.2,0.2c0,0.1,2.1,3.2,2.1,3.2h0c0,0,2.1-3.2,2.2-3.2s0.1-0.1,0.2-0.2
			c0.1,0,0.1-0.1,0.2-0.1c0.1,0,0.1,0,0.2,0h0.6c0.1,0,0.1,0,0.2,0c0,0,0.1,0,0.1,0.1c0,0,0.1,0.1,0.1,0.1c0,0.1,0,0.1,0,0.2V73.6z"
			/>
		<path id="XMLID_224_" style="fill:#CF4D79;" d="M21.8,71v2.6c0,0,0,0.1,0,0.1c0,0,0,0-0.1,0.1c0,0-0.1,0-0.2,0c-0.1,0-0.1,0-0.2,0
			c-0.1,0-0.2,0-0.2,0c-0.1,0-0.1,0-0.2,0c0,0-0.1,0-0.1-0.1c0,0,0,0,0-0.1V71l-2.2-4c0-0.1-0.1-0.2-0.1-0.2c0,0,0-0.1,0-0.1
			s0.1,0,0.2,0c0.1,0,0.2,0,0.3,0c0.1,0,0.2,0,0.3,0c0.1,0,0.1,0,0.2,0c0,0,0.1,0,0.1,0.1c0,0,0,0.1,0.1,0.1l1.1,2.1
			c0.1,0.2,0.2,0.4,0.3,0.6c0.1,0.2,0.2,0.4,0.3,0.6h0c0.1-0.2,0.2-0.4,0.3-0.6c0.1-0.2,0.2-0.4,0.3-0.6l1.1-2.1c0,0,0-0.1,0.1-0.1
			c0,0,0.1,0,0.1-0.1c0,0,0.1,0,0.2,0c0.1,0,0.2,0,0.3,0c0.1,0,0.3,0,0.3,0c0.1,0,0.1,0,0.2,0.1c0,0,0,0.1,0,0.1c0,0,0,0.1-0.1,0.2
			L21.8,71z"/>
		<path id="XMLID_222_" style="fill:#CF4D79;" d="M35.7,73.4c0,0.1,0,0.1-0.1,0.1c0,0-0.1,0.1-0.1,0.1c-0.1,0-0.1,0-0.2,0
			c-0.1,0-0.2,0-0.3,0c-0.1,0-0.2,0-0.3,0c-0.1,0-0.1,0-0.2,0c-0.1,0-0.1,0-0.1-0.1c0,0,0-0.1-0.1-0.1l-1.3-4c0-0.1-0.2-0.1-0.2,0
			l-1.4,4c0,0.1,0,0.1-0.1,0.1c0,0-0.1,0.1-0.1,0.1c0,0-0.1,0-0.2,0c-0.1,0-0.2,0-0.3,0c-0.1,0-0.2,0-0.3,0c-0.1,0-0.2,0-0.2,0
			c-0.1,0-0.1,0-0.1-0.1c0,0,0-0.1-0.1-0.1l-1.9-6.6c0-0.1,0-0.2,0-0.2c0,0,0-0.1,0-0.1c0,0,0.1,0,0.2,0c0.1,0,0.2,0,0.3,0
			c0.1,0,0.2,0,0.3,0c0.1,0,0.1,0,0.2,0c0,0,0.1,0,0.1,0.1c0,0,0,0.1,0,0.1l1.6,6h0c0,0,1.6-4.6,1.7-4.9c0.1-0.3,1-0.2,1.1,0
			c0.1,0.2,1.6,4.9,1.6,4.9h0l1.6-6c0,0,0-0.1,0-0.1c0,0,0,0,0.1-0.1c0,0,0.1,0,0.2,0c0.1,0,0.2,0,0.3,0c0.1,0,0.2,0,0.3,0
			c0.1,0,0.1,0,0.1,0.1c0,0,0,0.1,0,0.1c0,0,0,0.1,0,0.2L35.7,73.4z"/>
		<path id="XMLID_220_" style="fill:#CF4D79;" d="M44,73.4c0,0.1,0,0.1,0,0.2c0,0,0,0.1,0,0.1c0,0,0,0.1-0.1,0.1c0,0-0.1,0-0.1,0
			h-3.7c-0.1,0-0.2,0-0.3-0.1c-0.1-0.1-0.1-0.2-0.1-0.3V67c0-0.1,0-0.2,0.1-0.3c0.1-0.1,0.2-0.1,0.3-0.1h3.7c0,0,0.1,0,0.1,0
			c0,0,0,0,0.1,0.1c0,0,0,0.1,0,0.1c0,0,0,0.1,0,0.2c0,0.1,0,0.1,0,0.2c0,0,0,0.1,0,0.1c0,0,0,0.1-0.1,0.1s-0.1,0-0.1,0H41
			c-0.1,0-0.3,0.1-0.3,0.3v1.7c0,0.1,0.1,0.3,0.3,0.3h2.3c0,0,0.1,0,0.1,0c0,0,0,0,0.1,0.1c0,0,0,0.1,0,0.1c0,0.1,0,0.1,0,0.2
			c0,0.1,0,0.1,0,0.2c0,0,0,0.1,0,0.1c0,0,0,0.1-0.1,0.1c0,0-0.1,0-0.1,0H41c-0.1,0-0.3,0.1-0.3,0.3v2c0,0.1,0.1,0.3,0.3,0.3h2.8
			c0,0,0.1,0,0.1,0c0,0,0,0,0.1,0.1c0,0,0,0.1,0,0.1C44,73.2,44,73.3,44,73.4z"/>
		<path id="XMLID_217_" style="fill:#CF4D79;" d="M52.1,70.1c-0.1,2.3-1.1,3.1-2.2,3.5c-0.6,0.2-2.2,0.3-3,0.2
			c-0.3,0-0.8-0.3-0.8-0.8l0-5.6c0-0.5,0.3-0.8,0.7-0.8c0.3,0,1.4,0,1.4,0c0.7,0,1.2,0.1,1.7,0.2c0.5,0.2,0.9,0.4,1.2,0.7
			c0.3,0.3,0.6,0.7,0.7,1.1S52.1,69.5,52.1,70.1z M51,70.1c0-0.4-0.1-0.7-0.2-1.1c-0.1-0.3-0.3-0.6-0.5-0.9
			c-0.2-0.2-0.5-0.4-0.8-0.6c-0.3-0.1-0.8-0.2-1.3-0.2h-0.7c-0.2,0-0.4,0.2-0.4,0.4v4.8c0,0.2,0.2,0.4,0.4,0.4h0.7
			c0.5,0,0.9-0.1,1.3-0.2c0.3-0.1,0.6-0.3,0.9-0.5c0.2-0.2,0.4-0.5,0.5-0.9C51,71,51,70.6,51,70.1z"/>
		<path id="XMLID_214_" style="fill:#CF4D79;" d="M60.2,70.1c-0.1,2.3-1.1,3.1-2.2,3.5c-0.6,0.2-2.2,0.3-3,0.2
			c-0.3,0-0.8-0.3-0.8-0.8v-5.6c0-0.5,0.3-0.8,0.7-0.8c0.3,0,1.4,0,1.4,0c0.7,0,1.2,0.1,1.7,0.2c0.5,0.2,0.9,0.4,1.2,0.7
			c0.3,0.3,0.6,0.7,0.7,1.1C60.1,69.1,60.2,69.5,60.2,70.1z M59.1,70.1c0-0.4-0.1-0.7-0.2-1.1c-0.1-0.3-0.3-0.6-0.5-0.9
			c-0.2-0.2-0.5-0.4-0.8-0.6c-0.3-0.1-0.8-0.2-1.3-0.2h-0.7c-0.2,0-0.4,0.2-0.4,0.4v4.8c0,0.2,0.2,0.4,0.4,0.4h0.7
			c0.5,0,0.9-0.1,1.3-0.2c0.3-0.1,0.6-0.3,0.9-0.5c0.2-0.2,0.4-0.5,0.5-0.9C59.1,71,59.1,70.6,59.1,70.1z"/>
		<path id="XMLID_212_" style="fill:#CF4D79;" d="M71.7,73.4c0,0.1,0,0.1,0,0.2c0,0.1-0.1,0.1-0.1,0.1s-0.1,0.1-0.1,0.1
			c-0.1,0-0.1,0-0.2,0h-0.3c-0.1,0-0.2,0-0.3,0c-0.1,0-0.2-0.1-0.2-0.1c-0.1-0.1-0.1-0.1-0.2-0.2c-0.1-0.1-0.1-0.2-0.2-0.4L67.6,69
			c-0.1-0.2-0.2-0.4-0.4-0.7c-0.1-0.2-0.2-0.5-0.4-0.7h0c0,0.3,0,0.5,0,0.8c0,0.3,0,0.6,0,0.8v4.3c0,0,0,0.1,0,0.1s0,0-0.1,0.1
			c0,0-0.1,0-0.2,0c-0.1,0-0.1,0-0.3,0c-0.1,0-0.2,0-0.3,0c-0.1,0-0.1,0-0.2,0c0,0-0.1,0-0.1-0.1s0,0,0-0.1V67c0-0.1,0-0.3,0.1-0.3
			c0.1-0.1,0.2-0.1,0.3-0.1h0.5c0.1,0,0.2,0,0.3,0c0.1,0,0.2,0,0.2,0.1c0.1,0,0.1,0.1,0.2,0.2c0.1,0.1,0.1,0.2,0.2,0.3l1.8,3.1
			c0.1,0.2,0.2,0.4,0.3,0.6c0.1,0.2,0.2,0.4,0.3,0.5c0.1,0.2,0.2,0.4,0.3,0.5c0.1,0.2,0.2,0.3,0.3,0.5h0c0-0.3,0-0.6,0-0.9
			c0-0.3,0-0.6,0-0.9v-3.9c0,0,0,0,0-0.1c0,0,0,0,0.1-0.1c0,0,0.1,0,0.2,0c0.1,0,0.2,0,0.3,0c0.1,0,0.2,0,0.2,0c0.1,0,0.1,0,0.2,0
			c0,0,0.1,0,0.1,0.1c0,0,0,0,0,0.1V73.4z"/>
		<path id="XMLID_210_" style="fill:#CF4D79;" d="M79.7,67.7c0,0.1,0,0.1,0,0.2c0,0.1,0,0.1,0,0.1c0,0,0,0.1-0.1,0.1
			c0,0-0.1,0-0.1,0c0,0-0.1,0-0.2-0.1c-0.1-0.1-0.3-0.1-0.5-0.2c-0.2-0.1-0.4-0.2-0.7-0.2c-0.3-0.1-0.6-0.1-0.9-0.1
			c-0.4,0-0.8,0.1-1.2,0.2c-0.3,0.1-0.6,0.3-0.9,0.6s-0.4,0.6-0.5,0.9c-0.1,0.3-0.2,0.7-0.2,1.1c0,0.5,0.1,0.9,0.2,1.2
			c0.1,0.4,0.3,0.7,0.6,0.9c0.2,0.2,0.5,0.4,0.9,0.6c0.3,0.1,0.7,0.2,1.1,0.2c0.2,0,0.5,0,0.7-0.1c0.2,0,0.4-0.1,0.5-0.2
			c0.1,0,0.2-0.1,0.2-0.2V71c0-0.1-0.1-0.3-0.3-0.3h-1.5c-0.1,0-0.1,0-0.2-0.1c0-0.1-0.1-0.2-0.1-0.3c0-0.1,0-0.1,0-0.2
			c0,0,0-0.1,0-0.1c0,0,0-0.1,0.1-0.1c0,0,0.1,0,0.1,0h2.5c0,0,0.1,0,0.1,0c0,0,0.1,0,0.1,0.1c0,0,0.1,0.1,0.1,0.1
			c0,0.1,0,0.1,0,0.2v2.7c0,0.1,0,0.2-0.1,0.2c0,0.1-0.1,0.1-0.2,0.2c-0.1,0.1-0.3,0.1-0.5,0.2c-0.2,0.1-0.4,0.1-0.6,0.2
			c-0.2,0-0.4,0.1-0.6,0.1c-0.2,0-0.4,0-0.6,0c-0.6,0-1.1-0.1-1.6-0.3c-0.5-0.2-0.9-0.4-1.2-0.7c-0.3-0.3-0.6-0.7-0.7-1.1
			c-0.2-0.4-0.3-0.9-0.3-1.5c0-0.6,0.1-1.1,0.3-1.5c0.2-0.5,0.4-0.9,0.8-1.2c0.3-0.3,0.7-0.6,1.2-0.8s1-0.3,1.6-0.3
			c0.3,0,0.6,0,0.8,0.1c0.3,0,0.5,0.1,0.7,0.2c0.2,0.1,0.4,0.1,0.5,0.2c0.1,0.1,0.2,0.1,0.3,0.2s0.1,0.1,0.1,0.2
			C79.7,67.5,79.7,67.6,79.7,67.7z"/>
		<g id="XMLID_205_">
			<path id="XMLID_208_" style="fill:#CF4D79;" d="M63.3,73.7C63.3,73.8,63.3,73.8,63.3,73.7c0,0.1-0.1,0.1-0.1,0.1c0,0-0.1,0-0.2,0
				c-0.1,0-0.2,0-0.3,0c-0.1,0-0.2,0-0.2,0c-0.1,0-0.1,0-0.2,0c0,0-0.1,0-0.1-0.1c0,0,0,0,0-0.1v-4.8c0,0,0-0.1,0-0.1
				c0,0,0,0,0.1-0.1c0,0,0.1,0,0.2,0c0.1,0,0.1,0,0.2,0c0.1,0,0.2,0,0.3,0c0.1,0,0.1,0,0.2,0c0,0,0.1,0,0.1,0.1c0,0,0,0,0,0.1V73.7z
				"/>
			<path id="XMLID_206_" style="fill:#CF4D79;" d="M63.3,67.9C63.3,68,63.3,68,63.3,67.9c0,0.1-0.1,0.1-0.1,0.1c0,0-0.1,0-0.2,0
				c-0.1,0-0.2,0-0.3,0c-0.1,0-0.2,0-0.2,0c-0.1,0-0.1,0-0.2,0c0,0-0.1,0-0.1-0.1c0,0,0,0,0-0.1v-1.3c0,0,0-0.1,0-0.1
				c0,0,0,0,0.1-0.1c0,0,0.1,0,0.2,0c0.1,0,0.1,0,0.2,0c0.1,0,0.2,0,0.3,0c0.1,0,0.1,0,0.2,0c0,0,0.1,0,0.1,0.1c0,0,0,0,0,0.1V67.9z
				"/>
		</g>
	</g>
</g>
</svg>
