<?xml version="1.0" encoding="utf-8"?>
<!-- Generator: Adobe Illustrator 19.0.0, SVG Export Plug-In . SVG Version: 6.00 Build 0)  -->
<svg version="1.1" id="圖層_1" xmlns="http://www.w3.org/2000/svg" xmlns:xlink="http://www.w3.org/1999/xlink" x="0px" y="0px"
	 viewBox="0 0 104.6 19.8" style="enable-background:new 0 0 104.6 19.8;" xml:space="preserve">
<g id="XMLID_223_">
	<path id="XMLID_224_" style="fill:#FFFFFF;" d="M7.4,7.8c0.5-0.3,1-0.5,1.5-0.5s0.9,0.2,1.3,0.6c0.3,0.4,0.5,0.9,0.5,1.6
		c0,0.4-0.1,0.8-0.3,1.1c-0.2,0.3-0.5,0.4-0.8,0.4c-0.4,0-0.7-0.1-0.9-0.3c-0.2-0.2-0.3-0.4-0.3-0.7c0-0.4,0.2-0.6,0.5-0.8
		c0.4-0.3,0.5-0.6,0.5-0.9c0-0.2-0.1-0.3-0.2-0.4C9.2,7.6,9,7.6,8.8,7.6c-0.5,0-1,0.2-1.5,0.6c-0.5,0.4-0.8,1-1.1,1.7L5,15.6h1v0.2
		H2.1v-0.2h1.1l1.8-7.8H3.8V7.6h2.6L6.2,9.3C6.5,8.7,7,8.2,7.4,7.8z"/>
	<path id="XMLID_226_" style="fill:#FFFFFF;" d="M18.8,15.6c-0.7,0.3-1.4,0.5-2.3,0.5c-0.8,0-1.6-0.1-2.3-0.4
		c-0.7-0.3-1.3-0.7-1.8-1.3s-0.7-1.2-0.7-1.9c0-1,0.3-1.9,0.9-2.7c0.6-0.7,1.3-1.3,2.2-1.7c0.9-0.4,1.8-0.6,2.7-0.6
		c0.9,0,1.6,0.2,2.2,0.5c0.6,0.4,0.9,0.9,0.9,1.5c0,0.7-0.2,1.3-0.5,1.7s-1,0.7-1.8,0.9s-2,0.3-3.5,0.3c-0.5,0-0.9,0-1.2,0
		c0,0.2,0,0.4,0,0.5c0,1,0.3,1.7,1,2.2c0.6,0.5,1.4,0.8,2.4,0.8c0.6,0,1.2-0.1,1.7-0.4c0.6-0.3,1.1-0.7,1.5-1.3h0.2
		C20,14.8,19.5,15.3,18.8,15.6z M14.3,12.1c1.1,0,1.9-0.1,2.6-0.3c0.7-0.2,1.1-0.5,1.4-0.9c0.3-0.4,0.5-1,0.5-1.7
		c0-0.5-0.2-0.9-0.5-1.1c-0.3-0.3-0.7-0.4-1.1-0.4c-0.5,0-0.9,0.2-1.4,0.6c-0.5,0.4-0.9,0.9-1.3,1.6c-0.4,0.7-0.6,1.4-0.8,2.2
		L14.3,12.1z"/>
	<path id="XMLID_229_" style="fill:#FFFFFF;" d="M30.9,15.5c0,0.3,0.1,0.4,0.3,0.4c0.2,0,0.5-0.2,0.8-0.5c0.3-0.3,0.6-0.7,0.7-1.2
		h0.1c-0.2,0.4-0.4,0.9-0.8,1.2c-0.3,0.4-0.7,0.6-1.1,0.6c-1,0-1.5-0.6-1.7-1.8c-0.3,0.7-0.8,1.1-1.3,1.4s-1.2,0.4-2.1,0.4
		c-0.8,0-1.6-0.2-2.2-0.5c-0.6-0.3-1.1-0.8-1.5-1.3c-0.3-0.6-0.5-1.1-0.5-1.8c0-1.1,0.3-2,0.8-2.8c0.5-0.8,1.2-1.4,2-1.8
		c0.8-0.4,1.6-0.6,2.5-0.6c0.7,0,1.4,0.1,2,0.4C29.7,8,30.2,8.5,30.5,9l1-1.4h1.2L31,15.1C30.9,15.2,30.9,15.4,30.9,15.5z M29.2,8
		c-0.6-0.3-1.1-0.4-1.6-0.4c-0.7,0-1.3,0.2-1.9,0.7c-0.6,0.5-1.1,1.1-1.4,1.8c-0.3,0.8-0.5,1.6-0.5,2.5c0,0.7,0.1,1.3,0.4,1.8
		s0.7,0.9,1.1,1.1c0.5,0.3,0.9,0.4,1.4,0.4c0.6,0,1.2-0.2,1.7-0.6c0.5-0.4,0.9-1,1.1-1.8l0.9-4.1C30.1,8.7,29.7,8.3,29.2,8z"/>
	<path id="XMLID_232_" style="fill:#FFFFFF;" d="M40.7,15.7c-0.5,0.2-1.1,0.4-2,0.4c-0.8,0-1.6-0.2-2.2-0.5
		c-0.6-0.3-1.1-0.8-1.5-1.3c-0.3-0.6-0.5-1.1-0.5-1.8c0-1.1,0.3-2,0.8-2.8c0.5-0.8,1.2-1.4,2-1.8c0.8-0.4,1.6-0.6,2.5-0.6
		c0.7,0,1.4,0.1,2,0.4C42.4,8,42.9,8.4,43.2,9l0.1-0.1l1.2-5.2h-1.7V3.5h3.5l-2.9,12.2h1.1v0.2h-3l0.3-1.3
		C41.6,15.1,41.2,15.5,40.7,15.7z M41.9,8c-0.6-0.3-1.1-0.4-1.6-0.4c-0.7,0-1.3,0.2-1.9,0.7c-0.6,0.5-1,1.1-1.4,1.8
		s-0.5,1.6-0.5,2.5c0,0.7,0.1,1.3,0.4,1.8c0.3,0.5,0.6,0.9,1.1,1.1c0.5,0.3,0.9,0.4,1.4,0.4c0.6,0,1.2-0.2,1.7-0.6
		c0.5-0.4,0.9-1,1.1-1.8l0.9-4.1C42.8,8.7,42.4,8.3,41.9,8z"/>
	<path id="XMLID_235_" style="fill:#FFFFFF;" d="M68.8,15.8c0,0.3,0.1,0.4,0.3,0.4s0.5-0.2,0.8-0.5s0.6-0.7,0.7-1.2h0.1
		c-0.2,0.4-0.4,0.9-0.8,1.2s-0.7,0.6-1.1,0.6c-0.5,0-1-0.2-1.3-0.5c-0.3-0.3-0.5-0.8-0.5-1.3c0-0.2,0-0.3,0-0.5l0.8-3.1
		c0.3-1,0.4-1.8,0.4-2.2c0-0.7-0.4-1.1-1.2-1.1c-0.5,0-1,0.2-1.6,0.5c-0.6,0.3-1.1,0.7-1.5,1.3l-1.4,6.5h-1.8l1.1-4.9
		c0.2-0.8,0.3-1.4,0.3-1.9c0-0.8-0.3-1.3-0.8-1.4c-0.1,0-0.3-0.1-0.5-0.1c-0.5,0-1,0.1-1.5,0.4c-0.5,0.3-0.9,0.6-1.2,1l-1.5,6.7
		h-1.9l1.8-8h-1.3V7.6h3.1l-0.3,1.1c0.3-0.4,0.8-0.7,1.3-0.9c0.6-0.2,1.1-0.3,1.7-0.3c0.7,0,1.3,0.1,1.8,0.4c0.5,0.2,0.8,0.6,1,1.1
		c1-1,2.1-1.6,3.4-1.6c0.8,0,1.4,0.2,1.9,0.5c0.5,0.3,0.8,0.8,0.8,1.4c0,0.2,0,0.4-0.1,0.6l-0.8,3.2l-0.5,2.2
		C68.8,15.5,68.8,15.6,68.8,15.8z"/>
	<path id="XMLID_237_" style="fill:#FFFFFF;" d="M73.6,9.5C74.3,8.8,75,8.3,75.9,8c0.9-0.3,1.8-0.5,2.7-0.5c0.8,0,1.5,0.1,2.1,0.4
		c0.6,0.3,1.2,0.7,1.6,1.2c0.4,0.5,0.6,1.1,0.6,1.9c0,0.3,0,0.6-0.1,1c-0.2,0.9-0.7,1.8-1.3,2.4c-0.7,0.7-1.4,1.2-2.3,1.5
		c-0.9,0.3-1.7,0.5-2.6,0.5c-0.8,0-1.5-0.1-2.2-0.4c-0.7-0.3-1.2-0.7-1.6-1.2c-0.4-0.5-0.6-1.2-0.6-1.9c0-0.3,0-0.6,0.1-1
		C72.5,10.9,73,10.1,73.6,9.5z M76.6,8.2C76,8.6,75.4,9.1,75,9.7c-0.4,0.6-0.7,1.3-0.9,2c-0.2,0.7-0.2,1.3-0.2,1.8
		c0,1.8,0.9,2.7,2.8,2.7c0.7,0,1.3-0.2,1.9-0.6c0.6-0.4,1.1-1,1.5-1.6c0.4-0.7,0.7-1.4,0.9-2.1c0.1-0.6,0.2-1.1,0.2-1.7
		c0-1.7-0.9-2.6-2.7-2.6C77.8,7.6,77.2,7.8,76.6,8.2z"/>
	<path id="XMLID_240_" style="fill:#FFFFFF;" d="M89.4,7.8c0.5-0.3,1-0.5,1.5-0.5s0.9,0.2,1.3,0.6c0.3,0.4,0.5,0.9,0.5,1.6
		c0,0.4-0.1,0.8-0.3,1.1c-0.2,0.3-0.5,0.4-0.8,0.4c-0.4,0-0.7-0.1-0.9-0.3s-0.3-0.4-0.3-0.7c0-0.4,0.2-0.6,0.5-0.8
		c0.4-0.3,0.5-0.6,0.5-0.9c0-0.2-0.1-0.3-0.2-0.4c-0.1-0.1-0.2-0.2-0.4-0.2c-0.5,0-1,0.2-1.5,0.6c-0.5,0.4-0.8,1-1.1,1.7l-1.3,5.7h1
		v0.2H84v-0.2h1.1l1.8-7.8h-1.1V7.6h2.6l-0.3,1.7C88.5,8.7,88.9,8.2,89.4,7.8z"/>
	<path id="XMLID_242_" style="fill:#FFFFFF;" d="M100.7,15.6c-0.7,0.3-1.4,0.5-2.3,0.5c-0.8,0-1.6-0.1-2.3-0.4
		c-0.7-0.3-1.3-0.7-1.8-1.3s-0.7-1.2-0.7-1.9c0-1,0.3-1.9,0.9-2.7c0.6-0.7,1.3-1.3,2.2-1.7c0.9-0.4,1.8-0.6,2.7-0.6
		c0.9,0,1.6,0.2,2.2,0.5c0.6,0.4,0.9,0.9,0.9,1.5c0,0.7-0.2,1.3-0.5,1.7s-1,0.7-1.8,0.9s-2,0.3-3.5,0.3c-0.5,0-0.9,0-1.2,0
		c0,0.2,0,0.4,0,0.5c0,1,0.3,1.7,1,2.2c0.6,0.5,1.4,0.8,2.4,0.8c0.6,0,1.2-0.1,1.7-0.4c0.6-0.3,1.1-0.7,1.5-1.3h0.2
		C101.9,14.8,101.4,15.3,100.7,15.6z M96.2,12.1c1.1,0,1.9-0.1,2.6-0.3c0.7-0.2,1.1-0.5,1.4-0.9s0.5-1,0.5-1.7
		c0-0.5-0.2-0.9-0.5-1.1c-0.3-0.3-0.7-0.4-1.1-0.4c-0.5,0-0.9,0.2-1.4,0.6c-0.5,0.4-0.9,0.9-1.3,1.6c-0.4,0.7-0.6,1.4-0.8,2.2
		L96.2,12.1z"/>
</g>
</svg>
