<?xml version="1.0" encoding="utf-8"?>
<!-- Generator: Adobe Illustrator 19.0.0, SVG Export Plug-In . SVG Version: 6.00 Build 0)  -->
<svg version="1.1" id="圖層_1" xmlns="http://www.w3.org/2000/svg" xmlns:xlink="http://www.w3.org/1999/xlink" x="0px" y="0px"
	 viewBox="0 0 104.6 19.8" style="enable-background:new 0 0 104.6 19.8;" xml:space="preserve">
<g id="XMLID_223_">
	<path id="XMLID_224_" style="fill:#FFFFFF;" d="M5.6,13.6c0,0.3,0.1,0.4,0.3,0.4c0.2,0,0.5-0.2,0.8-0.5c0.3-0.3,0.6-0.7,0.7-1.2
		h0.1c-0.2,0.4-0.4,0.9-0.8,1.2c-0.3,0.4-0.7,0.6-1.1,0.6c-1,0-1.6-0.6-1.7-1.8l1.5-6.4H4.3V5.7h1.2l0.7-3l1.6-1.5h0.6l-1,4.4h2.3
		v0.2H7.4l-1.7,7.3C5.7,13.3,5.6,13.4,5.6,13.6z"/>
	<path id="XMLID_226_" style="fill:#FFFFFF;" d="M16.2,6c0.5-0.3,1-0.5,1.5-0.5S18.6,5.6,19,6c0.3,0.4,0.5,0.9,0.5,1.6
		c0,0.4-0.1,0.8-0.3,1.1c-0.2,0.3-0.5,0.4-0.8,0.4c-0.4,0-0.7-0.1-0.9-0.3c-0.2-0.2-0.3-0.4-0.3-0.7c0-0.4,0.2-0.6,0.5-0.8
		C18,7,18.2,6.7,18.2,6.3c0-0.2-0.1-0.3-0.2-0.4c-0.1-0.1-0.2-0.2-0.4-0.2c-0.5,0-1,0.2-1.5,0.6c-0.5,0.4-0.8,1-1.1,1.7l-1.3,5.7h1
		V14h-3.9v-0.2h1.1L13.7,6h-1.1V5.8h2.6L15,7.4C15.3,6.8,15.7,6.3,16.2,6z"/>
	<path id="XMLID_228_" style="fill:#FFFFFF;" d="M27.4,16.7c-0.7,0.9-1.5,1.5-2.4,2c-0.9,0.4-1.8,0.7-2.6,0.7
		c-0.8,0-1.4-0.2-1.9-0.6c-0.5-0.4-0.8-0.9-0.8-1.7c0-0.4,0.1-0.8,0.4-1c0.3-0.2,0.5-0.4,0.8-0.4c0.3,0,0.5,0.1,0.6,0.3
		c0.2,0.2,0.3,0.4,0.3,0.7c0,0.2,0,0.3-0.1,0.4c-0.1,0.1-0.2,0.2-0.4,0.4c-0.2,0.1-0.3,0.3-0.4,0.4s-0.1,0.3-0.1,0.4
		c0,0.2,0.2,0.4,0.5,0.5C21.6,19,22,19,22.4,19c1.1,0,2.1-0.5,2.8-1.5s1.4-2.5,1.9-4.4l0.1-0.2c-0.8,0.8-1.8,1.3-3,1.3
		c-0.2,0-0.4,0-0.5,0c-0.8-0.1-1.4-0.3-1.8-0.6c-0.4-0.3-0.5-0.7-0.5-1.3c0-0.3,0-0.5,0.1-0.7L22.7,6h-1.2V5.8h4.1V6h-1l-1.2,4.8
		c-0.3,1.1-0.5,1.8-0.5,2.2c0,0.8,0.4,1.1,1.2,1.1c0.5,0,1.1-0.1,1.6-0.4s1-0.6,1.3-1.1l0-0.1L28.7,6h-0.9V5.8h4.1V6h-1.2l-1.7,7.6
		C28.6,14.8,28.1,15.8,27.4,16.7z"/>
	<path id="XMLID_230_" style="fill:#FFFFFF;" d="M43.7,13.6c0,0.3,0.1,0.4,0.3,0.4c0.2,0,0.5-0.2,0.8-0.5c0.3-0.3,0.6-0.7,0.7-1.2
		h0.1c-0.2,0.4-0.4,0.9-0.8,1.2c-0.3,0.4-0.7,0.6-1.1,0.6c-0.5,0-0.9-0.2-1.2-0.5c-0.3-0.3-0.5-0.8-0.5-1.3c0-0.2,0-0.3,0.1-0.5
		L43.6,6h-1.7V5.8h3.6l-1.7,7.5C43.7,13.4,43.7,13.5,43.7,13.6z M46.1,2.2c0.2,0.2,0.4,0.5,0.4,0.9c0,0.3-0.1,0.6-0.4,0.9
		c-0.2,0.2-0.5,0.4-0.9,0.4c-0.3,0-0.6-0.1-0.9-0.4c-0.2-0.2-0.4-0.5-0.4-0.9c0-0.3,0.1-0.6,0.4-0.9c0.2-0.2,0.5-0.4,0.9-0.4
		C45.5,1.9,45.8,2,46.1,2.2z"/>
	<path id="XMLID_233_" style="fill:#FFFFFF;" d="M49.6,13.6c0,0.3,0.1,0.4,0.3,0.4s0.5-0.2,0.8-0.5c0.3-0.3,0.6-0.7,0.7-1.2h0.1
		c-0.2,0.4-0.4,0.9-0.8,1.2c-0.3,0.4-0.7,0.6-1.1,0.6c-1,0-1.6-0.6-1.7-1.8l1.5-6.4h-1.2V5.7h1.2l0.7-3l1.6-1.5h0.6l-1,4.4h2.3v0.2
		h-2.4l-1.7,7.3C49.7,13.3,49.6,13.4,49.6,13.6z"/>
	<path id="XMLID_235_" style="fill:#FFFFFF;" d="M72.6,13.7c-0.3,0.4-0.7,0.6-1.1,0.6c-0.5,0-0.9-0.2-1.2-0.5s-0.5-0.8-0.5-1.3
		c0-0.2,0-0.3,0.1-0.5l0.9-3.7C71,7.8,71,7.3,71,7c0-0.8-0.4-1.1-1.1-1.1c-1,0-2.2,0.6-3.6,1.9l-1.4,6.1h0.9V14H62v-0.2h1L64.8,6
		h-1.2V5.8h3.1l-0.4,1.7c0.4-0.5,1-0.9,1.7-1.2c0.7-0.4,1.4-0.5,2.1-0.5c0.1,0,0.3,0,0.3,0c1.5,0.2,2.3,0.8,2.3,1.8
		c0,0.1,0,0.3-0.1,0.6l-0.2,0.8l0,0.2l-1.1,4.7c0,0.3,0.1,0.4,0.3,0.4c0.2,0,0.5-0.2,0.8-0.5c0.3-0.3,0.6-0.7,0.7-1.2h0.1
		C73.2,12.9,73,13.3,72.6,13.7z"/>
	<path id="XMLID_237_" style="fill:#FFFFFF;" d="M76.5,7.6c0.7-0.7,1.4-1.2,2.3-1.5c0.9-0.3,1.8-0.5,2.7-0.5c0.8,0,1.5,0.1,2.1,0.4
		c0.6,0.3,1.2,0.7,1.6,1.2c0.4,0.5,0.6,1.1,0.6,1.9c0,0.3,0,0.6-0.1,1c-0.2,0.9-0.7,1.8-1.3,2.4c-0.7,0.7-1.4,1.2-2.3,1.5
		c-0.9,0.3-1.7,0.5-2.6,0.5c-0.8,0-1.5-0.1-2.2-0.4c-0.7-0.3-1.2-0.7-1.6-1.2c-0.4-0.5-0.6-1.2-0.6-1.9c0-0.3,0-0.6,0.1-1
		C75.4,9.1,75.9,8.3,76.5,7.6z M79.5,6.3c-0.6,0.4-1.1,0.9-1.5,1.5c-0.4,0.6-0.7,1.3-0.9,2c-0.2,0.7-0.2,1.3-0.2,1.8
		c0,1.8,0.9,2.7,2.8,2.7c0.7,0,1.3-0.2,1.9-0.6c0.6-0.4,1.1-1,1.5-1.6c0.4-0.7,0.7-1.4,0.9-2.1c0.1-0.6,0.2-1.1,0.2-1.7
		c0-1.7-0.9-2.6-2.7-2.6C80.7,5.7,80.1,5.9,79.5,6.3z"/>
	<path id="XMLID_240_" style="fill:#FFFFFF;" d="M96.8,11.9c0.8-0.6,1.5-1.3,2.1-2.1c0.6-0.8,1-1.5,1.1-2.2c0-0.2,0.1-0.4,0.1-0.6
		c0-0.1,0-0.2,0-0.3c0-0.1-0.1-0.1-0.2,0c-0.1,0.1-0.3,0.2-0.4,0.3c-0.1,0.1-0.3,0.1-0.5,0c-0.3-0.2-0.5-0.4-0.5-0.7
		c0,0,0-0.1,0-0.2c0.1-0.4,0.3-0.6,0.7-0.6c0.1,0,0.2,0,0.3,0.1c0.6,0.2,0.9,0.6,0.9,1.2c0,0.2,0,0.5-0.1,0.9
		c-0.2,0.9-0.7,1.8-1.6,2.8c-0.9,1-1.9,1.8-3.1,2.4c-1.2,0.7-2.2,1-3.2,1.1l-0.1,0v0h-0.1l0.7-2.8c-0.6,1-1.4,1.7-2.4,2.1
		c-1,0.4-2.2,0.7-3.7,0.8l1.8-8.1h-0.8V5.8h3.5v0.2h-0.8l-1.6,7.5c0.9-0.1,1.6-0.4,2.3-0.8c0.6-0.4,1.3-1.1,2-2l0.5-2.1l0.5-2.5
		h-0.8V5.7h3.5v0.2H96l-1.5,6.8l-0.1,0.5h0l0,0.1C95.2,13,96,12.6,96.8,11.9z"/>
</g>
</svg>
