<?xml version="1.0" encoding="utf-8"?>
<!-- Generator: Adobe Illustrator 19.0.0, SVG Export Plug-In . SVG Version: 6.00 Build 0)  -->
<svg version="1.1" id="圖層_1" xmlns="http://www.w3.org/2000/svg" xmlns:xlink="http://www.w3.org/1999/xlink" x="0px" y="0px"
	 viewBox="0 0 26 26" style="enable-background:new 0 0 26 26;" xml:space="preserve">
<g id="XMLID_314_">
	<path id="XMLID_275_" style="fill:#898989;" d="M12.9,1.2c6.5,0,11.8,5.3,11.8,11.8s-5.3,11.8-11.8,11.8C6.4,24.7,1.1,19.4,1.1,13
		S6.4,1.2,12.9,1.2 M12.9,0.2C5.9,0.2,0.1,5.9,0.1,13s5.7,12.8,12.8,12.8c7,0,12.8-5.7,12.8-12.8S19.9,0.2,12.9,0.2L12.9,0.2z"/>
</g>
<g id="XMLID_304_">
	
		<rect id="XMLID_308_" x="11.6" y="6.9" transform="matrix(0.707 0.7072 -0.7072 0.707 12.2449 -5.9432)" style="fill:none;stroke:#898989;stroke-width:0.9;stroke-linecap:round;stroke-linejoin:round;stroke-miterlimit:10;" width="3.3" height="9.8"/>
	
		<polygon id="XMLID_307_" style="fill:none;stroke:#898989;stroke-width:0.9;stroke-linecap:round;stroke-linejoin:round;stroke-miterlimit:10;" points="
		8.6,14.1 7,18.1 11,16.5 	"/>
	
		<line id="XMLID_306_" style="fill:none;stroke:#898989;stroke-width:0.9;stroke-linecap:round;stroke-linejoin:round;stroke-miterlimit:10;" x1="13.3" y1="9.7" x2="15.4" y2="11.9"/>
	
		<line id="XMLID_305_" style="fill:none;stroke:#898989;stroke-width:0.9;stroke-linecap:round;stroke-linejoin:round;stroke-miterlimit:10;" x1="14" y1="11.1" x2="9.8" y2="15.3"/>
</g>
</svg>
