<?xml version="1.0" encoding="utf-8"?>
<!-- Generator: Adobe Illustrator 19.0.0, SVG Export Plug-In . SVG Version: 6.00 Build 0)  -->
<svg version="1.1" id="圖層_1" xmlns="http://www.w3.org/2000/svg" xmlns:xlink="http://www.w3.org/1999/xlink" x="0px" y="0px"
	 viewBox="0 0 20 22" style="enable-background:new 0 0 20 22;" xml:space="preserve">
<style type="text/css">
	.st0{fill:none;stroke:#B5B5B5;stroke-width:0.8993;stroke-miterlimit:10;}
</style>
<g id="XMLID_278_">
	<path id="XMLID_285_" class="st0" d="M14.4,4.1H5.6V1.4c0-0.4,0.3-0.7,0.7-0.7h7.4c0.4,0,0.7,0.3,0.7,0.7V4.1z"/>
	<path id="XMLID_284_" class="st0" d="M17.4,20.6c0,0.4-0.3,0.7-0.7,0.7H3.3c-0.4,0-0.7-0.3-0.7-0.7V4.8c0-0.4,0.3-0.7,0.7-0.7h13.5
		c0.4,0,0.7,0.3,0.7,0.7V20.6z"/>
	<line id="XMLID_282_" class="st0" x1="0.2" y1="4.1" x2="19.8" y2="4.1"/>
	<line id="XMLID_281_" class="st0" x1="10" y1="7.9" x2="10" y2="17.5"/>
	<line id="XMLID_280_" class="st0" x1="6.7" y1="7.9" x2="6.7" y2="17.5"/>
	<line id="XMLID_279_" class="st0" x1="13.3" y1="7.9" x2="13.3" y2="17.5"/>
</g>
</svg>
