<?xml version="1.0" encoding="utf-8"?>
<!-- Generator: Adobe Illustrator 19.0.0, SVG Export Plug-In . SVG Version: 6.00 Build 0)  -->
<svg version="1.1" id="圖層_1" xmlns="http://www.w3.org/2000/svg" xmlns:xlink="http://www.w3.org/1999/xlink" x="0px" y="0px"
	 viewBox="0 0 55 20" style="enable-background:new 0 0 55 20;" xml:space="preserve">
<g id="XMLID_1448_">
	<path id="XMLID_1449_" style="fill:#F2C9DC;" d="M50.5,7.4c-0.1,0-0.3,0-0.4,0.1c0.2,0.3,0.4,0.6,0.4,1c0,0.7-1.1,1.7-2.2,2.7
		c0.3,0.3,0.7,0.6,1,1C50.5,11,52,9.8,52,8.9C52,8.1,51.4,7.4,50.5,7.4z"/>
</g>
<g id="XMLID_1446_">
	<path id="XMLID_1447_" style="fill:#F2C9DC;" d="M7.7,7.6c-0.1,0-0.3,0-0.4,0.1c0.2,0.3,0.4,0.6,0.4,1c0,0.7-1.1,1.7-2.2,2.7
		c0.3,0.3,0.7,0.6,1,1c1.2-1.2,2.7-2.4,2.7-3.2C9.2,8.3,8.6,7.6,7.7,7.6z"/>
</g>
<g id="XMLID_1444_">
	<path id="XMLID_1445_" style="fill:#F7CCDF;" d="M31.4,1.4c2.1,1.6,3.4,4.2,3.4,7.1c0,4.9-3.8,8.9-8.5,8.9c-1.6,0-3.1-0.5-4.3-1.3
		c1.6,2.2,4.2,3.6,7,3.6c4.9,0,8.9-4.2,8.9-9.3C38,6,35.2,2.4,31.4,1.4z"/>
</g>
<g id="XMLID_1225_">
	
		<path id="XMLID_1226_" style="fill:#F2C9DC;stroke:#727171;stroke-width:0.9171;stroke-linecap:round;stroke-linejoin:round;stroke-miterlimit:10;" d="
		M7.7,7.7c-0.5,0-0.9,0.5-1.2,0.9C6.2,8.2,5.7,7.7,5.2,7.7c-0.8,0-1.5,0.7-1.5,1.5c0,0.8,1.4,1.9,2.7,3.2c1.2-1.2,2.7-2.4,2.7-3.2
		C9.2,8.4,8.5,7.7,7.7,7.7z"/>
</g>
<g id="XMLID_1223_">
	
		<path id="XMLID_1224_" style="fill:#F2C9DC;stroke:#727171;stroke-width:0.9171;stroke-linecap:round;stroke-linejoin:round;stroke-miterlimit:10;" d="
		M50.6,7.4c-0.5,0-0.9,0.5-1.2,0.9c-0.3-0.4-0.7-0.9-1.2-0.9c-0.8,0-1.5,0.7-1.5,1.5c0,0.8,1.4,1.9,2.7,3.2c1.2-1.2,2.7-2.4,2.7-3.2
		C52.1,8.1,51.4,7.4,50.6,7.4z"/>
</g>
<g id="XMLID_1145_">
	
		<circle id="XMLID_1146_" style="fill:none;stroke:#727171;stroke-width:0.9171;stroke-linecap:round;stroke-linejoin:round;stroke-miterlimit:10;" cx="28.5" cy="10" r="9.4"/>
</g>
<path id="XMLID_1144_" style="fill:none;stroke:#727171;stroke-width:0.9171;stroke-linecap:round;stroke-linejoin:round;stroke-miterlimit:10;" d="
	M18.5,9.1c-3.1,1.1-5,2.1-4.8,2.8c0.3,1.2,6.9,0.8,14.7-0.8c0.1,0,0.1,0,0.2,0"/>
<g id="XMLID_1142_">
	
		<path id="XMLID_1143_" style="fill:#E68BAE;stroke:#727171;stroke-width:0.9171;stroke-linecap:round;stroke-linejoin:round;stroke-miterlimit:10;" d="
		M30.4,7.8c-0.8,0-1.5,0.8-1.9,1.4c-0.4-0.6-1.1-1.4-1.9-1.4c-1.3,0-2.4,1.1-2.4,2.4c0,1.3,2.3,3,4.3,5.1c1.8-1.8,4.3-3.8,4.3-5.1
		C32.9,8.9,31.8,7.8,30.4,7.8z"/>
</g>
<path id="XMLID_1141_" style="fill:none;stroke:#727171;stroke-width:0.9171;stroke-linecap:round;stroke-linejoin:round;stroke-miterlimit:10;" d="
	M29.2,11c7.8-1.7,13.9-4,13.6-5.2c-0.1-0.7-2.3-0.9-5.5-0.6"/>
</svg>
