<?xml version="1.0" encoding="utf-8"?>
<!-- Generator: Adobe Illustrator 19.0.0, SVG Export Plug-In . SVG Version: 6.00 Build 0)  -->
<svg version="1.1" id="圖層_1" xmlns="http://www.w3.org/2000/svg" xmlns:xlink="http://www.w3.org/1999/xlink" x="0px" y="0px"
	 viewBox="0 0 297.8 62.6" style="enable-background:new 0 0 297.8 62.6;" xml:space="preserve">
<g id="XMLID_80_">
	<path id="XMLID_81_" style="fill:#393939;" d="M46.3,40c3.3-2.3,6-5,8-8.2c2-3.1,3.4-6.3,4.1-9.6c0.5-2.5,0.8-4.4,0.8-5.9
		c0-1.2-0.1-2.3-0.4-3.3c-0.3-0.4-0.5-0.6-0.6-0.6c-0.1,0-0.3,0.3-0.6,1c-0.3,0.6-0.7,1.2-1.2,1.6s-1.2,0.6-2.2,0.6
		c-1.1-0.2-1.9-0.7-2.4-1.4c-0.6-0.7-0.9-1.6-0.9-2.5c0-1,0.4-1.9,1.1-2.6c0.7-0.7,1.7-1.1,3-1.1c1.7,0,3,0.7,4,2
		c1,1.4,1.5,3.1,1.5,5.2c0,6.3-1.5,11.8-4.4,16.6c-2.9,4.8-6.8,8.4-11.7,11c-4.9,2.6-10.2,3.9-15.9,3.9l2-8.5
		c-5,4.4-12.5,7.2-22.7,8.5l8.5-36.9h-6.2V8.5h17v1.3h-4.3l-7.9,34.4c2.6-0.5,5.3-1.5,8.2-2.9c2.9-1.4,5.5-3.2,7.8-5.4l6-26.1h-5.3
		V8.5h16.7v1.3h-5.4l-8,34.8C39.2,43.8,43,42.3,46.3,40z"/>
	<path id="XMLID_83_" style="fill:#393939;" d="M97.2,15.7c0-3.9-2.2-5.8-6.6-5.8H78.1l-3.4,15h6.1c1.8,0,3.3-0.5,4.6-1.6
		s2.2-2.5,2.8-4.2h0.9l-3,14.2h-0.7c0-4.7-1.6-7-5-7h-6L70,45h12.9c2.5,0,4.7-0.6,6.6-1.8c1.9-1.2,3.1-2.9,3.8-5h1l-2,8.1H59.8V45
		h4.2L72.1,10h-4.8V8.6h32.9L97.9,18h-0.9C97.1,17,97.2,16.2,97.2,15.7z"/>
	<path id="XMLID_85_" style="fill:#393939;" d="M137.1,10.7c2,1.4,3.1,3.4,3.1,5.8c0,1.5-0.4,2.9-1.1,4.2c-0.8,1.3-1.9,2.4-3.3,3.2
		c-1.4,0.9-3.2,1.4-5.1,1.6v0.1c2.3,0.3,4.2,1.3,5.7,3c1.4,1.8,2.1,3.9,2.1,6.4c0,0.7-0.1,1.6-0.3,2.6c-0.5,2.5-1.8,4.5-3.9,6.3
		s-4.8,2.6-8.1,2.6h-22.6v-1.3h4.7l8.3-35.3H112V8.5h15.8C131.9,8.5,135,9.2,137.1,10.7z M131.8,36c0.1-0.7,0.2-1.4,0.2-2.1
		c0-2.2-0.5-4.1-1.6-5.6c-1.1-1.5-2.8-2.3-5.3-2.3h-6.3l-4.4,19.1h8.4C127.4,45.2,130.5,42.1,131.8,36z M130.5,23.2
		c1.1-1,1.9-2.2,2.3-3.5c0.5-1.3,0.7-2.4,0.7-3.3c0-1.8-0.6-3.3-1.8-4.6c-1.2-1.3-2.9-1.9-5.1-1.9h-4.1l-3.7,14.9h7.4
		C128,24.7,129.4,24.2,130.5,23.2z"/>
	<path id="XMLID_89_" style="fill:#393939;" d="M172,14.6c0.5-0.3,0.8-0.6,1.1-0.9c0.2-0.3,0.4-0.8,0.4-1.4c0-0.4-0.2-0.8-0.7-1.2
		c-0.5-0.4-1.3-0.8-2.4-1.2s-2.4-0.5-4.1-0.5c-2.9,0-5.2,0.7-6.8,2c-1.6,1.4-2.4,3.1-2.4,5.2c0,1.2,0.5,2.3,1.4,3.2
		c0.9,0.9,2.3,2,4.2,3.3c1.4,1,2.4,1.7,3,2.2c2.6,2.1,4.6,4,6,5.7c1.3,1.7,2,3.4,2,5.1c0,0.4,0,0.7-0.1,0.9c-0.4,3-2,5.3-4.7,7.1
		c-2.7,1.8-6.6,2.7-11.7,2.7c-2.6,0-5-0.5-7-1.6s-3.7-2.3-4.9-3.9c-1.2-1.6-1.7-3.1-1.7-4.5c0-0.9,0.2-1.7,0.7-2.4
		c0.4-0.8,1-1.3,1.7-1.8s1.3-0.6,2-0.6c0.9,0,1.7,0.3,2.4,0.9c0.7,0.6,1.1,1.4,1.1,2.3c0,0.6-0.1,1-0.3,1.3c-0.2,0.3-0.5,0.6-0.9,1
		c-1,0.8-1.7,1.8-2.1,3c-0.2,0.7,0.1,1.5,1.1,2.3c1,0.8,2.2,1.4,3.8,1.9c1.6,0.5,3.1,0.8,4.6,0.8c3.5,0,6.1-0.6,7.8-1.7
		c1.7-1.1,2.6-2.7,2.6-4.8c0-1.7-0.7-3.3-2-4.9c-1.3-1.6-3.4-3.4-6.1-5.5l-1-0.7c-1.7-1.3-3.1-2.4-4.2-3.3s-1.9-2-2.7-3.2
		c-0.8-1.2-1.1-2.4-1.1-3.8c0-0.5,0.1-1,0.2-1.5c0.5-2.6,2.2-4.7,4.8-6.1c2.7-1.4,5.7-2.1,9.1-2.1c3.6,0,6.6,0.7,9,2.2
		c2.4,1.5,3.6,3.5,3.6,6c0,1.4-0.4,2.5-1.3,3.4c-0.9,0.8-1.9,1.2-3.1,1.2c-0.9,0-1.6-0.3-2.3-0.8c-0.6-0.5-0.9-1.2-0.9-2.1
		c0-0.4,0.1-0.9,0.2-1.3C170.5,15.9,171,15.3,172,14.6z"/>
	<path id="XMLID_91_" style="fill:#393939;" d="M194.2,9.8h-5.7V8.5h17.5v1.3h-5.9l-8.1,35.3h4.1v1.3h-15.2v-1.3h5.2L194.2,9.8z"/>
	<path id="XMLID_93_" style="fill:#393939;" d="M247.6,15.8c0-1.9-0.8-3.3-2.4-4.4c-1.6-1.1-3.6-1.6-6-1.6h-4.2L226,45h6.2v1.3
		h-17.4V45h5.3l8.8-35.2h-4.7c-1.9,0-3.8,0.6-5.6,1.8c-1.8,1.2-3,3-3.5,5.3l-1.3-0.1l1.9-8.4h34.9l-2,8.3h-1.2
		C247.6,16.6,247.6,16.3,247.6,15.8z"/>
	<path id="XMLID_95_" style="fill:#393939;" d="M291.3,15.7c0-3.9-2.2-5.8-6.6-5.8h-12.5l-3.4,15h6.1c1.8,0,3.3-0.5,4.6-1.6
		c1.3-1.1,2.2-2.5,2.8-4.2h0.9l-3,14.2h-0.7c0-4.7-1.6-7-4.9-7h-6L264.1,45H277c2.5,0,4.7-0.6,6.6-1.8s3.1-2.9,3.8-5h1l-2,8.1H254
		V45h4.2l8.1-35.1h-4.8V8.6h32.9L292,18h-0.9C291.2,17,291.3,16.2,291.3,15.7z"/>
</g>
</svg>
