<?xml version="1.0" encoding="utf-8"?>
<!-- Generator: Adobe Illustrator 19.0.0, SVG Export Plug-In . SVG Version: 6.00 Build 0)  -->
<svg version="1.1" id="圖層_1" xmlns="http://www.w3.org/2000/svg" xmlns:xlink="http://www.w3.org/1999/xlink" x="0px" y="0px"
	 viewBox="-182 92 43 43" style="enable-background:new -182 92 43 43;" xml:space="preserve">
<style type="text/css">
	.st0{fill:none;stroke:#fff;stroke-width:1.0088;stroke-linecap:round;stroke-linejoin:round;stroke-miterlimit:10;}
	.st1{fill:none;stroke:#fff;stroke-width:2.0177;stroke-linecap:round;stroke-linejoin:round;stroke-miterlimit:10;}
</style>
<path id="XMLID_1074_" class="st0" d="M-160.5,101.5v9.5c2.1,0,5.1,0.3,5.1-1.6v-2.1c0-1.9-1.7-3.4-3.8-3.4h-2.5
	c-2.1,0-3.8,1.5-3.8,3.4v3c0,1.9,1.7,3.4,3.8,3.4l2.5,0.1c2.1,0,3.8,1.5,3.8,3.4v3c0,1.9-1.7,3.4-3.8,3.4h-2.5
	c-2.1,0-3.8-1.5-3.8-3.4V118c0-1.9,3-1.6,5.1-1.6v9.1"/>
<circle id="XMLID_910_" class="st1" cx="-160.5" cy="113.5" r="18.5"/>
</svg>
