<?xml version="1.0" encoding="utf-8"?>
<!-- Generator: Adobe Illustrator 19.0.0, SVG Export Plug-In . SVG Version: 6.00 Build 0)  -->
<svg version="1.1" id="圖層_1" xmlns="http://www.w3.org/2000/svg" xmlns:xlink="http://www.w3.org/1999/xlink" x="0px" y="0px"
	 viewBox="-182 92 43 43" style="enable-background:new -182 92 43 43;" xml:space="preserve">
<style type="text/css">
	.st0{fill:none;stroke:#888989;stroke-width:0.9708;stroke-linecap:round;stroke-linejoin:round;stroke-miterlimit:10;}
	.st1{fill:none;stroke:#888989;stroke-width:1.9416;stroke-linecap:round;stroke-linejoin:round;stroke-miterlimit:10;}
	.st2{fill:none;stroke:#888989;stroke-width:1.9416;stroke-miterlimit:10;}
</style>
<g id="XMLID_170_">
	<line id="XMLID_1026_" class="st0" x1="-166.1" y1="113.7" x2="-152.7" y2="113.7"/>
	<line id="XMLID_1027_" class="st0" x1="-174.8" y1="118.5" x2="-152.7" y2="118.5"/>
	<line id="XMLID_1009_" class="st0" x1="-166.1" y1="108.9" x2="-152.7" y2="108.9"/>
	<line id="XMLID_1008_" class="st0" x1="-174.8" y1="123.3" x2="-152.7" y2="123.3"/>
	<path id="XMLID_1002_" class="st0" d="M-171.8,112.9h-2c-0.6,0-1-0.5-1-1v-2c0-0.6,0.5-1,1-1h2c0.6,0,1,0.5,1,1v2
		C-170.7,112.4-171.2,112.9-171.8,112.9z"/>
	<path id="XMLID_907_" class="st1" d="M-147.9,132.4h-31.4c-0.3,0-0.6-0.3-0.6-0.6v-31.4c0-0.3,0.3-0.6,0.6-0.6h31.4
		c0.3,0,0.6,0.3,0.6,0.6v31.4C-147.3,132.2-147.6,132.4-147.9,132.4z"/>
	<path id="XMLID_1254_" class="st2" d="M-144.5,127.1h2.8c0.3,0,0.6-0.3,0.6-0.6V95.1c0-0.3-0.3-0.6-0.6-0.6h-31.4
		c-0.3,0-0.6,0.3-0.6,0.6v2.8"/>
</g>
</svg>
