<?xml version="1.0" encoding="utf-8"?>
<!-- Generator: Adobe Illustrator 19.0.0, SVG Export Plug-In . SVG Version: 6.00 Build 0)  -->
<svg version="1.1" id="圖層_1" xmlns="http://www.w3.org/2000/svg" xmlns:xlink="http://www.w3.org/1999/xlink" x="0px" y="0px"
	 viewBox="0 0 104.6 15.3" style="enable-background:new 0 0 104.6 15.3;" xml:space="preserve">
<g id="XMLID_223_">
	<path id="XMLID_224_" style="fill:#FFFFFF;" d="M5.4,12.1c-0.4,0.3-0.7,0.5-1.1,0.5c-0.7,0-1.2-0.4-1.3-1.1c0-0.1,0-0.1,0-0.2
		c0-0.2,0.1-0.4,0.2-0.5c0.1-0.1,0.3-0.2,0.5-0.2c0.3,0,0.5,0.1,0.5,0.4c0,0,0,0.1,0,0.1c0,0.1-0.1,0.3-0.2,0.5
		c-0.1,0.1-0.1,0.2-0.2,0.3c0,0.1,0,0.2,0,0.3c0,0.1,0.1,0.2,0.2,0.3c0.1,0.1,0.2,0.1,0.3,0.1s0.2,0,0.3-0.1
		c0.1-0.1,0.2-0.2,0.2-0.3l1.7-7H5.3l0-0.1h2.3l-1.4,6C6,11.4,5.7,11.8,5.4,12.1z M7.7,2.6C7.6,2.4,7.4,2.4,7.2,2.4
		C7,2.4,6.8,2.4,6.7,2.6C6.5,2.7,6.5,2.9,6.5,3.1c0,0.2,0.1,0.4,0.2,0.5C6.8,3.8,7,3.9,7.2,3.9c0.2,0,0.4-0.1,0.5-0.2
		c0.1-0.1,0.2-0.3,0.2-0.5C7.9,2.9,7.9,2.7,7.7,2.6z"/>
	<path id="XMLID_227_" style="fill:#FFFFFF;" d="M8.4,6c0.4-0.4,0.9-0.7,1.4-0.9c0.5-0.2,1.1-0.3,1.6-0.3c0.5,0,0.9,0.1,1.3,0.2
		s0.7,0.4,0.9,0.7c0.2,0.3,0.4,0.7,0.4,1.1c0,0.2,0,0.4-0.1,0.6c-0.1,0.6-0.4,1.1-0.8,1.5c-0.4,0.4-0.8,0.7-1.4,0.9s-1,0.3-1.6,0.3
		c-0.5,0-0.9-0.1-1.3-0.2c-0.4-0.2-0.7-0.4-1-0.7C7.6,8.8,7.5,8.5,7.5,8c0-0.2,0-0.4,0.1-0.6C7.7,6.9,8,6.4,8.4,6z M10.1,5.2
		C9.8,5.4,9.5,5.7,9.2,6.1C9,6.5,8.8,6.9,8.7,7.3C8.6,7.7,8.6,8.1,8.6,8.4c0,1.1,0.6,1.6,1.7,1.6c0.4,0,0.8-0.1,1.1-0.4
		s0.7-0.6,0.9-1c0.3-0.4,0.4-0.8,0.5-1.3C12.9,7,13,6.7,13,6.4c0-1-0.5-1.5-1.6-1.5C10.9,4.9,10.5,5,10.1,5.2z"/>
	<path id="XMLID_230_" style="fill:#FFFFFF;" d="M16,9.6c0,0.2,0.1,0.2,0.2,0.2s0.3-0.1,0.5-0.3c0.2-0.2,0.3-0.4,0.4-0.7h0.1
		c-0.1,0.3-0.3,0.5-0.5,0.7s-0.4,0.3-0.6,0.3c-0.3,0-0.6-0.1-0.7-0.3c-0.2-0.2-0.3-0.5-0.3-0.8c0-0.1,0-0.2,0-0.3L16,5h-1V4.9h2.2
		l-1,4.5C16,9.4,16,9.5,16,9.6z M17.4,2.7c0.1,0.1,0.2,0.3,0.2,0.5c0,0.2-0.1,0.4-0.2,0.5C17.3,3.9,17.1,4,16.9,4
		c-0.2,0-0.4-0.1-0.5-0.2s-0.2-0.3-0.2-0.5c0-0.2,0.1-0.4,0.2-0.5c0.1-0.1,0.3-0.2,0.5-0.2C17.1,2.5,17.3,2.6,17.4,2.7z"/>
	<path id="XMLID_233_" style="fill:#FFFFFF;" d="M24,9.6c-0.2,0.2-0.4,0.3-0.6,0.3c-0.3,0-0.6-0.1-0.7-0.3s-0.3-0.5-0.3-0.8
		c0-0.1,0-0.2,0-0.3l0.5-2.2C23,6.1,23,5.8,23,5.6c0-0.5-0.2-0.7-0.7-0.7c-0.6,0-1.3,0.4-2.2,1.1l-0.8,3.6h0.5v0.1h-2.2V9.7h0.6
		L19.3,5h-0.7V4.9h1.9l-0.2,1c0.3-0.3,0.6-0.5,1-0.7c0.4-0.2,0.8-0.3,1.2-0.3c0.1,0,0.2,0,0.2,0c0.9,0.1,1.4,0.5,1.4,1.1
		c0,0.1,0,0.2,0,0.4l-0.1,0.5l0,0.1l-0.6,2.8c0,0.2,0.1,0.2,0.2,0.2C23.6,9.9,23.7,9.8,24,9.6c0.1-0.3,0.3-0.5,0.4-0.7h0.1
		C24.3,9.1,24.2,9.4,24,9.6z"/>
	<path id="XMLID_235_" style="fill:#FFFFFF;" d="M34.5,9.6c0,0.2,0.1,0.2,0.2,0.2c0.1,0,0.3-0.1,0.5-0.3c0.2-0.2,0.3-0.4,0.4-0.7
		h0.1c-0.1,0.3-0.3,0.5-0.5,0.7c-0.2,0.2-0.4,0.4-0.6,0.4c-0.3,0-0.5-0.1-0.6-0.2c-0.1-0.1-0.2-0.3-0.3-0.5s-0.1-0.4-0.1-0.7
		C33.5,8.7,33.3,9,33,9.2c-0.3,0.2-0.6,0.4-1,0.5c-0.4,0.1-0.7,0.2-1.1,0.2c-0.5,0-0.8-0.1-1-0.3s-0.3-0.4-0.3-0.7
		c0-0.1,0-0.3,0.1-0.4L30.5,5h-0.7V4.9h1.8l-0.7,3.3c-0.1,0.5-0.2,0.8-0.2,1c0,0.4,0.2,0.6,0.6,0.6c0.3,0,0.5-0.1,0.9-0.2
		c0.3-0.2,0.6-0.3,0.9-0.6c0.3-0.2,0.5-0.4,0.6-0.6L34.5,5h-0.5V4.9h1.7l-1,4.5C34.5,9.4,34.5,9.5,34.5,9.6z"/>
	<path id="XMLID_237_" style="fill:#FFFFFF;" d="M40.7,5.6c0.2-0.1,0.3-0.2,0.3-0.4c0-0.1,0-0.1,0-0.2c-0.1-0.1-0.2-0.2-0.3-0.2
		S40.3,4.8,40,4.8c-0.5,0-0.9,0.1-1.1,0.3c-0.3,0.2-0.4,0.5-0.4,0.7c0,0.2,0.1,0.3,0.2,0.4c0.1,0.1,0.3,0.2,0.6,0.4
		c0.2,0.1,0.4,0.2,0.5,0.3c0.9,0.6,1.4,1.1,1.4,1.7c0,0.3-0.1,0.5-0.3,0.7s-0.6,0.4-1,0.5c-0.4,0.1-0.9,0.2-1.5,0.2
		c-0.4,0-0.7-0.1-1.1-0.2c-0.3-0.1-0.6-0.3-0.8-0.5c-0.2-0.2-0.3-0.4-0.3-0.7c0-0.2,0.1-0.4,0.3-0.6s0.4-0.2,0.6-0.2
		c0.2,0,0.4,0,0.5,0.1c0.1,0.1,0.2,0.2,0.2,0.4c0,0.1,0,0.2-0.1,0.2c0,0.1-0.1,0.1-0.2,0.2c-0.2,0.1-0.3,0.3-0.4,0.5
		c0,0.1,0,0.2,0.2,0.3s0.3,0.2,0.6,0.2c0.2,0.1,0.5,0.1,0.6,0.1c0.5,0,0.9-0.1,1.2-0.2C39.9,9.4,40,9.2,40,9c0-0.2-0.1-0.4-0.2-0.6
		c-0.1-0.2-0.3-0.3-0.5-0.5c-0.2-0.1-0.4-0.3-0.8-0.5c-0.4-0.3-0.8-0.5-1-0.7c-0.2-0.2-0.3-0.4-0.3-0.7c0,0,0-0.1,0-0.3
		c0.1-0.3,0.4-0.6,0.8-0.8c0.4-0.2,1-0.3,1.7-0.3c0.4,0,0.7,0.1,1,0.2c0.3,0.1,0.5,0.3,0.7,0.5c0.2,0.2,0.2,0.4,0.2,0.6
		c0,0.2-0.1,0.4-0.3,0.5c-0.2,0.1-0.4,0.2-0.6,0.2c-0.2,0-0.3,0-0.5-0.1s-0.2-0.2-0.2-0.3c0-0.1,0-0.1,0-0.2
		C40.4,5.8,40.5,5.7,40.7,5.6z"/>
	<path id="XMLID_239_" style="fill:#FFFFFF;" d="M49.9,5c0.3-0.2,0.6-0.3,0.9-0.3c0.3,0,0.6,0.1,0.8,0.3c0.2,0.2,0.3,0.5,0.3,1
		c0,0.3-0.1,0.5-0.2,0.6c-0.1,0.2-0.3,0.2-0.5,0.2c-0.2,0-0.4-0.1-0.5-0.2s-0.2-0.3-0.2-0.4c0-0.2,0.1-0.4,0.3-0.5
		c0.2-0.2,0.3-0.3,0.3-0.6c0-0.1,0-0.2-0.1-0.3c-0.1-0.1-0.1-0.1-0.3-0.1c-0.3,0-0.6,0.1-0.9,0.4c-0.3,0.3-0.5,0.6-0.7,1l-0.8,3.4
		h0.6v0.1h-2.4V9.7h0.6L48.4,5h-0.6V4.9h1.6l-0.2,1C49.4,5.5,49.7,5.2,49.9,5z"/>
	<path id="XMLID_241_" style="fill:#FFFFFF;" d="M54,9.6c0,0.2,0.1,0.2,0.2,0.2c0.1,0,0.3-0.1,0.5-0.3c0.2-0.2,0.3-0.4,0.4-0.7h0.1
		c-0.1,0.3-0.3,0.5-0.5,0.7s-0.4,0.3-0.6,0.3c-0.3,0-0.6-0.1-0.7-0.3c-0.2-0.2-0.3-0.5-0.3-0.8c0-0.1,0-0.2,0-0.3L53.9,5h-1V4.9h2.2
		l-1,4.5C54,9.4,54,9.5,54,9.6z M55.4,2.7c0.1,0.1,0.2,0.3,0.2,0.5c0,0.2-0.1,0.4-0.2,0.5C55.3,3.9,55.1,4,54.9,4
		c-0.2,0-0.4-0.1-0.5-0.2s-0.2-0.3-0.2-0.5c0-0.2,0.1-0.4,0.2-0.5c0.1-0.1,0.3-0.2,0.5-0.2C55.1,2.5,55.3,2.6,55.4,2.7z"/>
	<path id="XMLID_244_" style="fill:#FFFFFF;" d="M60.4,11.4c-0.4,0.5-0.9,0.9-1.5,1.1c-0.5,0.3-1.1,0.4-1.6,0.4
		c-0.5,0-0.9-0.1-1.2-0.3c-0.3-0.2-0.5-0.6-0.5-1c0-0.3,0.1-0.4,0.2-0.6c0.2-0.1,0.3-0.2,0.5-0.2c0.2,0,0.3,0,0.4,0.2
		c0.1,0.1,0.2,0.2,0.2,0.4c0,0.1,0,0.2-0.1,0.3c0,0.1-0.1,0.1-0.2,0.2c-0.1,0.1-0.2,0.2-0.2,0.2c-0.1,0.1-0.1,0.2-0.1,0.3
		c0,0.1,0.1,0.2,0.3,0.3c0.2,0.1,0.4,0.1,0.7,0.1c0.7,0,1.3-0.3,1.7-0.9c0.5-0.6,0.8-1.4,1.1-2.5l0-0.1c-0.2,0.2-0.4,0.4-0.7,0.5
		s-0.6,0.2-1.1,0.2c-0.5,0-0.9-0.1-1.3-0.3c-0.4-0.2-0.7-0.5-0.9-0.8S56,8.2,56,7.8c0-0.6,0.2-1.2,0.5-1.7s0.7-0.8,1.2-1.1
		c0.5-0.2,1-0.4,1.5-0.4c0.4,0,0.8,0.1,1.2,0.2c0.4,0.2,0.6,0.4,0.8,0.7l0.1-0.2l0.1-0.6h2V5h-0.9l-1.1,4.6
		C61.1,10.3,60.8,10.9,60.4,11.4z M60.3,5.1c-0.3-0.2-0.6-0.3-1-0.3c-0.4,0-0.8,0.1-1.1,0.4c-0.4,0.3-0.6,0.6-0.8,1.1
		c-0.2,0.5-0.3,1-0.3,1.5c0,0.4,0.1,0.8,0.3,1.1s0.4,0.5,0.7,0.7c0.3,0.2,0.6,0.2,0.9,0.2c0.3,0,0.6-0.1,0.8-0.2
		c0.3-0.2,0.5-0.4,0.6-0.6l0.8-3.1C60.9,5.5,60.6,5.3,60.3,5.1z"/>
	<path id="XMLID_247_" style="fill:#FFFFFF;" d="M69.3,9.6c-0.2,0.2-0.4,0.3-0.6,0.3c-0.3,0-0.6-0.1-0.7-0.2
		c-0.2-0.2-0.3-0.4-0.3-0.7c0-0.1,0-0.3,0.1-0.4l0.5-2.2c0.1-0.3,0.1-0.6,0.1-0.8c0-0.5-0.2-0.7-0.7-0.7c-0.6,0-1.3,0.4-2.2,1.1
		l-0.8,3.6h0.7v0.1h-2.7V9.7h0.8l1.7-7.4h-0.8V2.2h1.9l-0.8,3.7c0.3-0.3,0.6-0.5,1-0.7s0.8-0.3,1.2-0.3c0.1,0,0.2,0,0.2,0
		c0.9,0.1,1.4,0.5,1.4,1.1c0,0.1,0,0.2,0,0.4l-0.1,0.5l0,0.1l-0.6,2.6c0,0.1,0,0.2,0,0.2c0,0.1,0.1,0.2,0.2,0.2
		C68.8,9.9,69,9.8,69.3,9.6c0.1-0.3,0.3-0.5,0.4-0.7h0.1C69.6,9.1,69.5,9.4,69.3,9.6z"/>
	<path id="XMLID_249_" style="fill:#FFFFFF;" d="M71.9,9.5c0,0.2,0.1,0.2,0.2,0.2c0.1,0,0.3-0.1,0.5-0.3C72.7,9.3,72.9,9,73,8.8h0.1
		C73,9,72.8,9.3,72.6,9.5S72.2,9.9,72,9.9c-0.6,0-1-0.4-1-1.1l0.9-3.9h-0.7V4.8h0.7L72.2,3l1-0.9h0.3l-0.6,2.7h1.4v0.1h-1.4l-1,4.4
		C71.9,9.4,71.9,9.5,71.9,9.5z"/>
	<path id="XMLID_251_" style="fill:#FFFFFF;" d="M85.2,9.6C85,9.9,84.8,10,84.6,10c-0.3,0-0.6-0.1-0.7-0.3c-0.2-0.2-0.3-0.5-0.3-0.8
		c0-0.1,0-0.2,0-0.3l0.5-2.2c0.1-0.3,0.1-0.6,0.1-0.8c0-0.5-0.2-0.7-0.7-0.7c-0.6,0-1.3,0.4-2.2,1.1l-0.8,3.6h0.5v0.1h-2.2V9.7h0.6
		L80.5,5h-0.7V4.9h1.9l-0.2,1c0.3-0.3,0.6-0.5,1-0.7c0.4-0.2,0.8-0.3,1.2-0.3c0.1,0,0.2,0,0.2,0c0.9,0.1,1.4,0.5,1.4,1.1
		c0,0.1,0,0.2,0,0.4l-0.1,0.5l0,0.1l-0.6,2.8c0,0.2,0.1,0.2,0.2,0.2C84.8,9.9,85,9.8,85.2,9.6c0.1-0.3,0.3-0.5,0.4-0.7h0.1
		C85.6,9.1,85.4,9.4,85.2,9.6z"/>
	<path id="XMLID_253_" style="fill:#FFFFFF;" d="M87.3,6c0.4-0.4,0.9-0.7,1.4-0.9c0.5-0.2,1.1-0.3,1.6-0.3c0.5,0,0.9,0.1,1.3,0.2
		c0.4,0.2,0.7,0.4,0.9,0.7c0.2,0.3,0.4,0.7,0.4,1.1c0,0.2,0,0.4-0.1,0.6C92.7,8,92.4,8.5,92,8.9s-0.8,0.7-1.4,0.9s-1,0.3-1.6,0.3
		c-0.5,0-0.9-0.1-1.3-0.2c-0.4-0.2-0.7-0.4-1-0.7S86.5,8.5,86.5,8c0-0.2,0-0.4,0.1-0.6C86.7,6.9,86.9,6.4,87.3,6z M89.1,5.2
		c-0.4,0.2-0.7,0.5-0.9,0.9c-0.2,0.4-0.4,0.8-0.5,1.2c-0.1,0.4-0.1,0.8-0.1,1.1c0,1.1,0.6,1.6,1.7,1.6c0.4,0,0.8-0.1,1.1-0.4
		s0.7-0.6,0.9-1c0.3-0.4,0.4-0.8,0.5-1.3c0.1-0.3,0.1-0.7,0.1-1c0-1-0.5-1.5-1.6-1.5C89.9,4.9,89.5,5,89.1,5.2z"/>
	<path id="XMLID_256_" style="fill:#FFFFFF;" d="M99.3,8.6c0.5-0.4,0.9-0.8,1.3-1.3c0.4-0.5,0.6-0.9,0.7-1.3c0-0.1,0-0.2,0-0.4
		c0-0.1,0-0.1,0-0.2c0-0.1-0.1,0-0.1,0s-0.2,0.1-0.3,0.2c-0.1,0-0.2,0-0.3,0c-0.2-0.1-0.3-0.2-0.3-0.4c0,0,0-0.1,0-0.1
		c0-0.2,0.2-0.4,0.4-0.4c0.1,0,0.1,0,0.2,0c0.3,0.1,0.5,0.3,0.5,0.7c0,0.1,0,0.3-0.1,0.5c-0.1,0.5-0.4,1.1-1,1.7s-1.1,1.1-1.8,1.5
		c-0.7,0.4-1.3,0.6-1.9,0.6l0,0v0h-0.1L97,8.1c-0.4,0.6-0.8,1-1.4,1.3c-0.6,0.3-1.3,0.4-2.2,0.5L94.4,5h-0.5V4.9H96V5h-0.5l-1,4.5
		c0.5-0.1,1-0.2,1.4-0.5c0.4-0.3,0.8-0.7,1.2-1.2l0.3-1.3L97.7,5h-0.5V4.9h2.1V5h-0.5L97.9,9l-0.1,0.3h0l0,0.1
		C98.3,9.2,98.8,8.9,99.3,8.6z"/>
</g>
</svg>
