<?xml version="1.0" encoding="utf-8"?>
<!-- Generator: Adobe Illustrator 19.0.0, SVG Export Plug-In . SVG Version: 6.00 Build 0)  -->
<svg version="1.1" id="圖層_1" xmlns="http://www.w3.org/2000/svg" xmlns:xlink="http://www.w3.org/1999/xlink" x="0px" y="0px"
	 viewBox="0 0 16.1 16" style="enable-background:new 0 0 16.1 16;" xml:space="preserve">
<path id="XMLID_114_" style="fill:#9FA0A0;" d="M7.8,0.8C3.9,0.8,0.6,4,0.6,8s3.2,7.2,7.2,7.2S15,12,15,8S11.8,0.8,7.8,0.8z
	 M1.1,8.3h1.7c0,0.8,0.1,1.6,0.3,2.3H1.7C1.4,9.9,1.2,9.1,1.1,8.3z M10.5,7.8c0-0.8-0.1-1.6-0.2-2.4h1.6c0.2,0.7,0.3,1.5,0.3,2.4
	H10.5z M9.4,3.3c0.2,0.5,0.3,1,0.4,1.6H8.1V3.3H9.4z M8.1,2.8V1.4C8.5,1.5,8.9,2,9.2,2.8H8.1z M7.6,1.4v1.4H6.4
	C6.8,2,7.2,1.5,7.6,1.4z M7.6,3.3v1.6H5.8c0.1-0.6,0.2-1.1,0.4-1.6H7.6z M7.6,5.4v2.4h-2c0-0.8,0.1-1.6,0.2-2.4H7.6z M7.6,8.3v2.3
	H5.7C5.6,9.9,5.6,9.1,5.6,8.3H7.6z M7.6,11.1v1.6H6.2c-0.2-0.5-0.3-1-0.4-1.6H7.6z M7.6,13.2v1.4c-0.4-0.1-0.8-0.6-1.1-1.4H7.6z
	 M8.1,14.6v-1.4h1.1C8.8,14,8.5,14.5,8.1,14.6z M8.1,12.7v-1.6h1.7c-0.1,0.6-0.2,1.1-0.4,1.6H8.1z M8.1,10.6V8.3H10
	c0,0.8-0.1,1.6-0.2,2.3H8.1z M8.1,7.8V5.4h1.8C9.9,6.1,10,6.9,10,7.8H8.1z M10.3,4.9C10.2,4.3,10,3.8,9.9,3.3H11
	c0.3,0.5,0.6,1,0.8,1.6H10.3z M9.7,2.8C9.5,2.3,9.3,1.9,9.1,1.6c0.6,0.3,1.1,0.7,1.5,1.2H9.7z M6.5,1.6C6.3,1.9,6.1,2.3,5.9,2.8H5
	C5.5,2.3,6,1.9,6.5,1.6z M5.7,3.3c-0.2,0.5-0.3,1-0.4,1.6H3.9c0.2-0.6,0.5-1.1,0.8-1.6H5.7z M5.2,5.4C5.1,6.2,5.1,7,5.1,7.8H3.3
	c0-0.8,0.1-1.6,0.4-2.4H5.2z M2.8,7.8H1.1c0-0.8,0.2-1.6,0.5-2.4h1.5C3,6.1,2.9,6.9,2.8,7.8z M3.3,8.3h1.7c0,0.8,0.1,1.6,0.2,2.3
	H3.7C3.5,9.9,3.4,9.1,3.3,8.3z M5.3,11.1c0.1,0.6,0.2,1.1,0.4,1.6H4.7c-0.3-0.5-0.6-1-0.8-1.6H5.3z M5.9,13.2
	c0.2,0.5,0.4,0.9,0.6,1.2C6,14.1,5.5,13.7,5,13.2H5.9z M9.7,13.2h0.9c-0.4,0.5-0.9,1-1.5,1.2C9.3,14.1,9.5,13.7,9.7,13.2z M9.9,12.7
	c0.2-0.5,0.3-1,0.4-1.6h1.5c-0.2,0.6-0.5,1.1-0.8,1.6H9.9z M10.3,10.6c0.1-0.8,0.2-1.5,0.2-2.3h1.7c0,0.8-0.1,1.6-0.3,2.3H10.3z
	 M12.7,8.3h1.8c0,0.8-0.2,1.6-0.5,2.3h-1.6C12.6,9.9,12.7,9.1,12.7,8.3z M12.7,7.8c0-0.8-0.1-1.6-0.3-2.4H14
	c0.3,0.7,0.5,1.5,0.5,2.4H12.7z M13.7,4.9h-1.5c-0.2-0.6-0.4-1.1-0.7-1.6h1C13,3.8,13.4,4.3,13.7,4.9z M12,2.8h-0.8
	c-0.3-0.4-0.6-0.7-0.9-1C10.9,2,11.5,2.4,12,2.8z M4.4,2.8H3.6c0.5-0.4,1.1-0.7,1.7-1C5,2.1,4.7,2.4,4.4,2.8z M3.1,3.3h1
	c-0.3,0.5-0.5,1-0.7,1.6H1.9C2.2,4.3,2.6,3.8,3.1,3.3z M1.9,11.1h1.4c0.2,0.6,0.4,1.1,0.7,1.6h-1v0C2.6,12.2,2.2,11.7,1.9,11.1z
	 M3.6,13.2h0.8c0.3,0.4,0.6,0.7,0.9,1C4.7,13.9,4.1,13.6,3.6,13.2z M11.2,13.2H12c-0.5,0.4-1.1,0.8-1.7,1
	C10.6,13.9,10.9,13.6,11.2,13.2z M12.6,12.7h-1c0.3-0.5,0.5-1,0.7-1.6h1.5C13.4,11.7,13,12.2,12.6,12.7z"/>
</svg>
